<svg id="svg" version="1.1" xmlns="http://www.w3.org/2000/svg" xmlns:xlink="http://www.w3.org/1999/xlink" width="400" height="400" viewBox="0, 0, 400,400"><g id="svgg"><path id="path0" d="M197.158 92.739 C 196.394 93.258,189.646 98.566,182.162 104.536 C 174.678 110.506,164.248 118.819,158.984 123.009 C 153.721 127.199,141.680 136.793,132.227 144.328 C 122.773 151.863,110.773 161.423,105.559 165.572 C 95.396 173.659,94.922 174.192,94.922 177.538 C 94.922 181.748,96.840 182.492,108.478 182.793 C 114.512 182.950,116.898 183.146,117.267 183.515 C 117.664 183.914,117.816 188.552,117.969 205.041 L 118.164 226.059 140.483 203.948 C 167.423 177.259,166.378 178.702,165.022 170.076 C 160.581 141.812,183.875 122.719,211.821 131.717 C 218.340 133.816,218.567 133.435,201.845 148.428 C 197.178 152.612,193.359 156.319,193.359 156.667 C 193.359 159.130,194.999 171.353,195.413 171.977 C 195.863 172.655,202.393 175.207,209.701 177.562 C 212.279 178.392,212.829 178.013,224.377 167.437 C 236.888 155.980,237.160 155.872,238.251 161.888 C 239.628 169.475,237.762 181.194,233.988 188.666 C 228.469 199.593,212.322 206.238,198.438 203.297 C 194.373 202.436,189.849 202.426,187.555 203.273 C 184.030 204.574,186.465 202.261,133.268 254.858 L 117.903 270.050 118.034 278.287 C 118.205 289.098,119.664 292.389,125.586 295.322 L 127.539 296.289 156.325 296.396 L 185.112 296.504 188.747 299.238 C 206.112 312.298,232.210 311.763,248.854 298.006 L 250.638 296.531 261.354 296.410 C 274.948 296.257,277.160 295.434,280.371 289.342 L 281.445 287.305 281.641 235.854 C 281.826 187.131,281.873 184.366,282.533 183.705 C 283.139 183.100,284.278 182.975,291.166 182.760 C 302.751 182.397,304.944 181.580,304.823 177.669 C 304.718 174.274,304.359 173.859,295.359 166.724 C 290.714 163.041,282.827 156.710,277.832 152.654 L 268.750 145.280 268.722 129.964 C 268.690 112.229,268.480 108.762,267.392 107.966 C 266.181 107.081,242.881 107.173,242.138 108.066 C 241.742 108.543,241.551 110.651,241.406 116.141 L 241.211 123.570 232.813 116.804 C 198.019 88.773,200.517 90.460,197.158 92.739 M226.730 213.504 C 227.195 213.970,227.344 214.953,227.344 217.574 C 227.344 222.148,227.261 222.021,231.684 224.240 C 236.620 226.718,236.631 226.717,240.013 223.438 C 243.883 219.685,243.601 219.607,250.278 226.284 C 256.797 232.803,256.884 233.021,254.004 235.541 C 249.220 239.727,248.974 240.639,251.434 245.058 C 253.242 248.308,253.901 248.677,258.525 249.039 C 264.100 249.475,264.429 250.143,264.445 261.035 C 264.455 267.869,264.554 267.742,258.968 268.108 C 254.157 268.424,253.527 268.756,251.999 271.785 C 249.335 277.067,249.480 277.867,253.892 282.213 C 256.830 285.106,256.802 285.178,250.298 291.694 C 243.627 298.377,243.901 298.302,240.013 294.531 C 236.594 291.216,235.793 291.087,231.771 293.198 C 227.788 295.289,227.696 295.425,227.248 299.865 C 226.722 305.074,227.487 304.688,217.702 304.688 L 209.328 304.688 209.449 300.212 C 209.593 294.902,209.717 295.103,205.065 293.131 C 200.689 291.277,200.042 291.319,197.421 293.627 C 192.212 298.214,192.729 298.295,186.203 291.856 C 179.194 284.938,179.364 285.531,183.202 281.399 C 187.083 277.220,187.144 276.997,185.386 273.506 C 182.923 268.615,182.119 267.969,178.494 267.969 C 172.815 267.969,172.556 267.531,172.501 257.810 C 172.452 249.333,172.122 249.847,177.740 249.673 C 182.690 249.520,183.434 249.060,185.582 244.835 C 187.096 241.858,187.089 241.828,184.252 238.572 C 182.895 237.016,181.468 235.258,181.081 234.666 L 180.377 233.590 182.161 231.541 C 191.760 220.518,192.023 220.381,196.254 224.215 C 199.275 226.954,200.057 227.096,204.072 225.639 C 209.072 223.824,209.785 222.789,209.474 217.798 C 209.304 215.087,209.376 214.548,209.971 214.054 C 211.384 212.879,225.638 212.412,226.730 213.504 M212.853 241.366 C 200.403 245.350,196.352 262.121,205.628 271.278 C 216.943 282.449,235.992 274.607,235.928 258.805 C 235.879 246.597,224.168 237.746,212.853 241.366 " stroke="none" fill="#040404" fill-rule="evenodd"></path><path id="path1" d="M0.000 200.000 L 0.000 400.000 200.000 400.000 L 400.000 400.000 400.000 200.000 L 400.000 0.000 200.000 0.000 L 0.000 0.000 0.000 200.000 M202.884 92.768 C 203.671 93.302,209.078 97.565,214.899 102.241 C 220.721 106.916,229.022 113.586,233.347 117.061 L 241.211 123.379 241.317 116.040 C 241.458 106.228,239.934 107.194,255.026 107.352 C 266.282 107.469,267.039 107.522,267.773 108.241 C 268.568 109.017,268.794 114.665,269.092 141.212 L 269.141 145.509 271.821 147.657 C 306.966 175.816,304.629 173.743,304.927 177.021 C 305.347 181.647,303.713 182.360,291.606 182.838 C 284.170 183.131,282.951 183.267,282.524 183.850 C 282.134 184.384,282.030 194.866,282.025 234.352 C 282.019 288.139,282.071 286.731,279.946 290.357 C 276.822 295.688,274.137 296.589,260.788 296.792 L 250.286 296.951 248.270 298.593 C 234.366 309.918,212.297 312.045,195.610 303.669 C 192.542 302.129,187.619 298.867,186.507 297.638 C 185.835 296.895,185.098 296.875,159.021 296.867 C 126.058 296.858,125.601 296.803,121.532 292.389 C 118.402 288.993,118.181 288.105,118.040 278.318 L 117.917 269.722 137.767 250.170 C 183.931 204.700,183.370 205.237,186.101 203.893 C 189.511 202.214,192.301 202.021,197.774 203.086 C 215.617 206.556,231.202 198.348,236.264 182.813 C 239.088 174.146,239.249 159.374,236.534 158.137 C 235.299 157.574,235.691 157.268,224.427 167.575 C 212.571 178.425,212.625 178.385,210.417 177.839 C 206.974 176.988,196.254 172.978,195.547 172.277 C 194.815 171.551,193.408 162.015,193.372 157.538 L 193.359 155.897 204.483 145.862 C 217.964 133.701,217.852 133.916,211.821 131.819 C 185.098 122.526,160.838 141.880,165.039 169.141 C 166.539 178.874,168.058 176.710,140.720 203.781 L 118.164 226.117 117.969 205.070 C 117.844 191.612,117.630 183.880,117.377 183.627 C 117.153 183.402,113.673 183.132,109.369 183.004 C 96.601 182.626,94.922 181.967,94.922 177.339 C 94.922 173.666,92.772 175.593,129.423 146.406 C 147.293 132.175,169.648 114.365,179.102 106.828 C 188.555 99.290,196.724 92.825,197.255 92.460 C 198.690 91.475,201.179 91.611,202.884 92.768 M210.699 213.664 C 209.500 214.148,209.315 214.993,209.609 218.618 L 209.872 221.861 208.354 223.364 C 206.632 225.070,201.154 227.160,199.495 226.743 C 198.983 226.615,197.383 225.445,195.942 224.143 C 192.740 221.254,191.852 221.130,189.868 223.296 C 189.103 224.132,186.807 226.632,184.766 228.852 C 182.725 231.073,180.927 233.113,180.770 233.387 C 180.590 233.702,181.634 235.229,183.602 237.534 C 187.064 241.587,187.202 242.053,185.772 244.837 C 183.527 249.207,182.114 249.974,176.277 249.991 C 172.327 250.002,172.564 249.408,172.728 258.907 C 172.882 267.768,172.807 267.642,178.110 267.896 C 182.200 268.091,183.237 268.862,185.535 273.415 C 187.289 276.888,187.194 277.258,183.594 281.008 C 179.568 285.201,179.480 284.795,185.840 291.355 C 192.049 297.758,192.159 297.803,195.310 295.215 C 200.724 290.767,200.184 290.893,205.078 292.934 C 209.538 294.794,209.865 295.320,209.704 300.356 L 209.573 304.492 217.641 304.598 C 227.272 304.724,226.732 304.985,227.083 300.035 C 227.403 295.536,227.605 295.238,231.778 293.143 C 236.248 290.898,236.232 290.896,239.844 294.336 C 243.970 298.266,243.603 298.360,250.278 291.684 C 256.962 285.001,256.867 285.383,252.882 281.200 C 249.398 277.543,249.310 276.919,251.630 272.330 C 253.431 268.766,254.067 268.396,259.067 267.995 C 264.516 267.559,264.063 268.282,264.060 260.036 C 264.057 249.465,264.027 249.409,258.299 249.145 C 253.885 248.941,253.159 248.493,251.091 244.692 C 248.945 240.750,249.029 240.343,252.771 236.509 C 256.822 232.359,256.354 231.306,246.767 222.997 C 243.458 220.129,243.633 220.113,239.846 223.655 C 236.242 227.024,236.775 226.976,231.619 224.397 C 227.207 222.189,227.163 222.125,227.150 217.818 C 227.144 215.860,226.999 214.038,226.828 213.770 C 226.463 213.197,212.087 213.103,210.699 213.664 M222.054 240.832 C 239.918 245.485,240.693 270.920,223.127 276.027 C 211.943 279.278,200.418 270.530,200.395 258.773 C 200.372 247.129,211.342 238.042,222.054 240.832 " stroke="none" fill="#fbfbfb" fill-rule="evenodd"></path><path id="path2" d="M246.174 107.321 C 247.615 107.395,250.076 107.396,251.643 107.322 C 253.210 107.247,252.031 107.186,249.023 107.185 C 246.016 107.185,244.734 107.246,246.174 107.321 M268.871 135.742 C 268.873 137.031,268.946 137.512,269.033 136.809 C 269.120 136.107,269.118 135.053,269.029 134.466 C 268.940 133.879,268.869 134.453,268.871 135.742 M112.409 183.096 C 113.111 183.183,114.166 183.181,114.753 183.092 C 115.340 183.002,114.766 182.931,113.477 182.934 C 112.188 182.936,111.707 183.009,112.409 183.096 M284.863 183.082 C 285.239 183.180,285.854 183.180,286.230 183.082 C 286.606 182.984,286.299 182.903,285.547 182.903 C 284.795 182.903,284.487 182.984,284.863 183.082 M281.806 193.555 C 281.806 198.066,281.863 199.859,281.932 197.537 C 282.002 195.216,282.001 191.525,281.932 189.334 C 281.862 187.144,281.806 189.043,281.806 193.555 M140.234 204.102 C 139.286 205.068,138.597 205.859,138.705 205.859 C 138.812 205.859,139.676 205.068,140.625 204.102 C 141.574 203.135,142.262 202.344,142.155 202.344 C 142.047 202.344,141.183 203.135,140.234 204.102 M179.077 209.473 L 177.930 210.742 179.199 209.595 C 180.383 208.525,180.648 208.203,180.347 208.203 C 180.279 208.203,179.708 208.774,179.077 209.473 M220.605 213.177 C 221.519 213.259,223.013 213.259,223.926 213.177 C 224.839 213.094,224.092 213.027,222.266 213.027 C 220.439 213.027,219.692 213.094,220.605 213.177 M227.052 218.945 C 227.056 219.805,227.136 220.110,227.229 219.624 C 227.323 219.138,227.319 218.435,227.222 218.062 C 227.124 217.688,227.047 218.086,227.052 218.945 M158.573 229.590 L 157.227 231.055 158.691 229.709 C 160.055 228.456,160.336 228.125,160.038 228.125 C 159.972 228.125,159.313 228.784,158.573 229.590 M131.239 256.543 L 128.711 259.180 131.348 256.652 C 132.798 255.262,133.984 254.075,133.984 254.015 C 133.984 253.728,133.587 254.094,131.239 256.543 M264.216 260.938 C 264.216 263.838,264.277 265.024,264.352 263.574 C 264.427 262.124,264.427 259.751,264.352 258.301 C 264.277 256.851,264.216 258.037,264.216 260.938 M144.629 296.777 C 152.095 296.837,164.312 296.837,171.777 296.777 C 179.243 296.718,173.135 296.669,158.203 296.669 C 143.271 296.669,137.163 296.718,144.629 296.777 M254.980 296.776 C 257.612 296.844,261.919 296.844,264.551 296.776 C 267.183 296.709,265.029 296.653,259.766 296.653 C 254.502 296.653,252.349 296.709,254.980 296.776 M209.481 301.563 C 209.481 302.529,209.558 302.925,209.651 302.441 C 209.744 301.958,209.744 301.167,209.651 300.684 C 209.558 300.200,209.481 300.596,209.481 301.563 " stroke="none" fill="#a1a1a1" fill-rule="evenodd"></path><path id="path3" d="M268.849 139.258 C 268.853 140.117,268.933 140.423,269.026 139.937 C 269.120 139.451,269.116 138.748,269.018 138.374 C 268.921 138.001,268.844 138.398,268.849 139.258 M281.829 244.727 C 281.829 266.641,281.876 275.548,281.934 264.521 C 281.991 253.494,281.991 235.564,281.933 224.677 C 281.876 213.790,281.829 222.813,281.829 244.727 M176.465 249.885 C 176.948 249.978,177.739 249.978,178.223 249.885 C 178.706 249.792,178.311 249.716,177.344 249.716 C 176.377 249.716,175.981 249.792,176.465 249.885 M127.130 260.645 L 125.586 262.305 127.246 260.761 C 128.159 259.911,128.906 259.164,128.906 259.100 C 128.906 258.805,128.566 259.101,127.130 260.645 " stroke="none" fill="#7d7c7d" fill-rule="evenodd"></path><path id="path4" d="M268.466 112.109 C 268.466 113.076,268.542 113.472,268.635 112.988 C 268.728 112.505,268.728 111.714,268.635 111.230 C 268.542 110.747,268.466 111.143,268.466 112.109 M268.875 142.969 C 268.875 144.365,268.946 144.937,269.033 144.238 C 269.119 143.540,269.119 142.397,269.033 141.699 C 268.946 141.001,268.875 141.572,268.875 142.969 M145.888 198.535 L 143.164 201.367 145.996 198.643 C 148.626 196.113,149.007 195.703,148.720 195.703 C 148.661 195.703,147.386 196.978,145.888 198.535 M176.151 212.402 L 174.805 213.867 176.270 212.521 C 177.633 211.268,177.914 210.938,177.616 210.938 C 177.550 210.938,176.891 211.597,176.151 212.402 M215.923 213.167 C 216.408 213.260,217.112 213.257,217.485 213.159 C 217.858 213.061,217.461 212.985,216.602 212.989 C 215.742 212.993,215.437 213.073,215.923 213.167 M151.563 236.523 C 149.962 238.135,148.740 239.453,148.848 239.453 C 148.955 239.453,150.353 238.135,151.953 236.523 C 153.554 234.912,154.775 233.594,154.668 233.594 C 154.561 233.594,153.163 234.912,151.563 236.523 M172.415 256.445 C 172.416 259.023,172.479 260.027,172.555 258.676 C 172.632 257.325,172.631 255.216,172.554 253.989 C 172.477 252.762,172.414 253.867,172.415 256.445 M123.424 264.355 L 121.289 266.602 123.535 264.466 C 125.622 262.483,125.960 262.109,125.670 262.109 C 125.609 262.109,124.598 263.120,123.424 264.355 " stroke="none" fill="#727475" fill-rule="evenodd"></path></g></svg>