<svg id="svg" version="1.1" xmlns="http://www.w3.org/2000/svg" xmlns:xlink="http://www.w3.org/1999/xlink" width="400" height="400" viewBox="0, 0, 400,400"><g id="svgg"><path id="path0" d="M196.985 71.387 C 195.757 72.061,193.826 73.674,174.417 90.234 C 169.003 94.854,163.635 99.424,162.488 100.391 C 161.341 101.357,158.897 103.439,157.057 105.017 C 155.216 106.594,152.744 108.713,151.563 109.726 C 150.381 110.738,145.459 114.965,140.625 119.119 C 135.791 123.274,130.969 127.395,129.910 128.278 C 128.851 129.160,127.181 130.599,126.199 131.475 C 125.217 132.350,121.338 135.688,117.578 138.892 C 113.818 142.095,110.654 144.815,110.547 144.936 C 110.275 145.240,100.077 153.928,93.369 159.570 C 90.304 162.148,84.943 166.719,81.456 169.727 C 77.969 172.734,71.928 177.920,68.030 181.250 C 58.660 189.257,57.550 192.002,62.125 195.852 L 63.341 196.875 74.419 196.875 C 86.408 196.875,87.097 196.976,88.280 198.916 C 89.050 200.180,89.060 200.918,89.061 262.024 C 89.063 329.656,88.911 325.379,91.383 327.460 C 93.378 329.139,91.999 329.102,152.671 329.102 L 210.615 329.102 211.557 328.006 L 212.500 326.910 212.500 302.113 C 212.500 274.775,212.398 275.911,214.928 275.029 C 216.906 274.340,245.066 274.462,246.428 275.166 C 248.672 276.327,248.623 275.743,248.742 302.812 L 248.850 327.695 249.881 328.506 C 250.906 329.312,251.088 329.316,278.288 329.209 L 305.664 329.102 307.291 328.231 C 308.186 327.753,309.285 326.847,309.733 326.218 L 310.547 325.075 310.645 262.440 C 310.737 203.334,310.781 199.748,311.431 198.791 C 312.673 196.964,313.338 196.875,325.786 196.875 L 337.473 196.875 338.807 195.703 C 339.683 194.934,340.291 193.938,340.577 192.802 C 341.005 191.104,340.970 190.764,340.139 188.548 C 339.781 187.591,327.636 176.799,315.279 166.456 C 313.643 165.087,309.592 161.659,306.277 158.839 C 302.961 156.019,298.284 152.041,295.883 150.000 C 288.068 143.358,281.909 138.094,281.477 137.689 C 281.245 137.471,276.309 133.260,270.508 128.332 C 264.707 123.403,257.396 117.166,254.262 114.471 C 249.031 109.973,236.869 99.609,227.177 91.390 C 223.729 88.466,216.524 82.412,214.254 80.533 C 211.039 77.870,207.924 75.227,205.664 73.246 C 202.804 70.738,199.468 70.023,196.985 71.387 M254.262 137.653 C 259.621 138.996,259.947 138.345,247.949 150.246 C 242.202 155.946,237.500 160.838,237.500 161.115 C 237.500 161.865,240.969 173.477,241.528 174.597 C 242.050 175.645,242.144 175.683,252.067 178.875 C 255.460 179.966,258.622 180.859,259.095 180.859 C 259.697 180.859,262.775 178.044,269.333 171.494 C 281.712 159.131,282.153 159.157,282.157 172.266 C 282.164 192.477,267.368 207.422,247.352 207.422 C 234.947 207.422,239.763 203.629,195.449 248.301 C 158.169 285.882,155.946 288.016,151.988 290.021 C 137.477 297.375,123.320 281.639,132.279 268.115 C 134.284 265.089,144.587 255.589,146.393 255.102 C 148.074 254.649,156.214 246.566,190.182 211.618 C 215.051 186.032,213.715 188.114,212.148 177.410 C 210.832 168.421,211.071 164.969,213.439 158.789 C 219.710 142.421,237.186 133.374,254.262 137.653 M178.274 160.529 C 180.078 161.215,180.549 162.527,180.892 167.819 C 181.279 173.781,180.662 173.056,188.519 176.784 L 195.016 179.867 199.082 177.726 C 203.765 175.262,203.361 175.111,204.938 179.908 C 206.624 185.038,206.791 184.726,197.152 194.432 C 192.617 198.998,188.761 202.734,188.583 202.734 C 188.404 202.734,187.353 202.019,186.246 201.144 C 172.337 190.150,151.433 197.580,146.602 215.234 C 144.804 221.806,146.423 231.221,150.203 236.177 C 151.995 238.527,152.130 238.348,138.861 251.213 C 126.691 263.012,127.687 262.389,125.225 259.757 C 123.066 257.449,123.071 257.385,125.771 253.125 C 126.792 251.514,128.022 249.418,128.504 248.468 L 129.381 246.742 128.375 243.781 C 124.634 232.775,124.674 232.817,117.795 232.520 C 110.573 232.208,110.612 232.272,110.570 220.680 C 110.541 212.488,110.107 213.076,117.224 211.646 C 123.982 210.287,123.347 210.861,125.959 203.740 C 129.121 195.120,129.149 196.030,125.581 191.194 C 121.724 185.966,121.572 186.549,128.643 179.395 C 135.237 172.723,134.586 172.864,140.820 176.754 C 146.343 180.200,145.391 180.047,149.558 178.163 C 160.565 173.187,159.555 174.105,160.130 168.555 C 161.035 159.817,160.616 160.160,170.385 160.158 C 174.184 160.157,177.735 160.324,178.274 160.529 M220.475 236.097 C 220.785 237.746,221.561 238.428,226.758 241.616 C 232.895 245.381,232.866 245.205,228.603 252.921 C 224.909 259.605,225.247 259.423,218.439 258.410 C 211.624 257.396,212.344 257.168,207.226 261.957 C 202.018 266.829,202.030 266.802,202.877 271.899 C 204.002 278.676,204.042 278.614,196.042 282.617 C 188.174 286.555,188.685 286.671,184.257 279.937 C 180.763 274.624,180.661 274.353,181.597 272.850 C 182.890 270.772,219.147 234.402,219.710 234.618 C 219.999 234.729,220.344 235.395,220.475 236.097 M143.668 269.510 C 138.153 271.261,137.001 278.708,141.758 281.857 C 146.296 284.860,152.341 281.610,152.343 276.166 C 152.345 271.817,147.678 268.236,143.668 269.510 " stroke="none" fill="#fbfbf3" fill-rule="evenodd"></path><path id="path1" d="M240.625 136.987 C 221.325 140.193,208.828 157.021,211.960 175.586 C 213.822 186.618,213.320 187.915,203.210 198.210 C 199.184 202.310,190.795 210.937,184.566 217.381 C 160.034 242.765,147.986 254.674,146.408 255.099 C 144.936 255.495,134.917 264.414,132.957 267.073 C 122.976 280.609,137.018 297.608,151.935 290.048 C 155.871 288.054,157.967 286.041,195.240 248.483 C 239.792 203.589,234.921 207.422,247.419 207.422 C 268.400 207.422,284.512 189.439,282.120 168.693 C 281.080 159.682,281.183 159.660,269.333 171.494 C 259.190 181.624,259.418 181.469,256.356 180.294 C 255.546 179.983,252.043 178.835,248.573 177.743 C 245.102 176.650,242.072 175.527,241.839 175.247 C 241.413 174.733,237.500 161.954,237.500 161.077 C 237.500 160.818,242.158 155.992,247.852 150.354 C 253.545 144.716,258.203 139.873,258.203 139.592 C 258.203 137.667,246.751 135.970,240.625 136.987 M162.434 160.754 C 161.101 161.478,160.699 162.811,160.140 168.359 C 159.614 173.593,159.625 173.574,156.055 175.210 C 154.551 175.900,151.946 177.101,150.266 177.880 C 145.635 180.026,146.074 180.078,140.831 176.774 C 134.616 172.859,135.226 172.735,128.816 179.205 C 121.575 186.513,121.710 185.904,126.013 191.789 C 129.045 195.935,129.034 195.289,126.206 203.097 C 123.385 210.885,124.017 210.280,117.260 211.651 C 110.342 213.054,110.771 212.588,110.609 218.866 C 110.277 231.715,110.527 232.204,117.598 232.516 C 124.640 232.826,124.258 232.530,126.988 239.792 C 129.789 247.243,129.822 246.909,125.636 253.409 C 123.090 257.361,123.083 257.467,125.225 259.757 C 127.683 262.385,126.697 262.999,138.659 251.387 C 152.345 238.101,151.976 238.603,150.028 235.915 C 142.214 225.128,145.547 208.273,157.053 200.389 C 166.184 194.133,179.757 194.762,187.131 201.784 C 188.580 203.165,188.210 203.436,197.152 194.432 C 206.821 184.696,206.656 185.006,204.905 179.848 C 203.306 175.137,203.747 175.298,199.103 177.730 L 195.042 179.856 191.564 178.240 C 180.084 172.903,181.247 174.039,180.876 167.801 C 180.563 162.538,180.091 161.220,178.274 160.529 C 176.626 159.903,163.663 160.086,162.434 160.754 M200.351 253.562 C 190.168 263.900,181.609 272.779,181.332 273.294 C 180.690 274.487,181.088 275.332,184.883 280.836 C 188.758 286.456,188.423 286.403,195.977 282.584 C 204.119 278.467,203.999 278.654,202.877 271.899 C 202.030 266.802,202.018 266.829,207.226 261.957 C 212.344 257.168,211.624 257.396,218.439 258.410 C 225.247 259.423,224.909 259.605,228.603 252.921 C 232.840 245.252,232.838 245.241,226.461 241.437 C 221.877 238.703,220.781 237.727,220.478 236.109 C 220.026 233.704,219.233 234.392,200.351 253.562 M148.849 270.128 C 152.484 272.008,153.486 277.524,150.757 280.632 C 147.493 284.349,141.755 283.671,139.551 279.309 C 136.474 273.218,142.781 266.990,148.849 270.128 " stroke="none" fill="#e36b1a" fill-rule="evenodd"></path><path id="path2" d="M0.000 200.000 L 0.000 400.000 200.000 400.000 L 400.000 400.000 400.000 200.000 L 400.000 0.000 200.000 0.000 L 0.000 0.000 0.000 200.000 M203.108 71.280 C 203.721 71.597,206.235 73.575,208.693 75.675 C 211.152 77.774,215.682 81.602,218.759 84.180 C 223.288 87.973,230.575 94.146,239.453 101.709 C 239.990 102.167,243.506 105.160,247.266 108.361 C 263.208 121.933,274.904 131.929,283.363 139.210 C 288.324 143.481,293.438 147.860,294.727 148.941 C 298.827 152.380,306.820 159.156,307.260 159.566 C 307.493 159.783,308.624 160.752,309.774 161.719 C 312.495 164.007,319.416 169.898,326.758 176.176 C 329.980 178.932,334.111 182.451,335.938 183.998 C 340.864 188.169,342.020 190.900,340.208 194.087 C 338.495 197.100,338.744 197.047,325.195 197.267 C 318.535 197.375,312.802 197.604,312.455 197.776 C 310.928 198.535,310.938 198.141,310.938 262.147 C 310.938 329.231,311.062 325.226,308.919 327.227 C 306.657 329.339,307.287 329.297,277.917 329.297 C 260.328 329.297,250.469 329.157,249.991 328.902 C 248.548 328.129,248.442 326.251,248.440 301.495 L 248.438 277.404 247.426 276.202 L 246.415 275.000 230.469 275.000 L 214.523 275.000 213.511 276.202 L 212.500 277.404 212.500 302.146 C 212.500 315.755,212.391 327.174,212.257 327.522 C 211.553 329.357,213.592 329.297,152.351 329.297 C 89.954 329.297,93.423 329.414,91.081 327.227 C 88.939 325.227,89.063 329.201,89.063 262.507 C 89.063 196.278,89.134 198.740,87.168 197.688 C 86.655 197.413,82.428 197.266,75.083 197.266 C 64.011 197.266,63.762 197.248,62.500 196.387 C 60.038 194.707,59.106 191.397,60.293 188.556 C 60.812 187.315,61.195 186.930,65.824 183.008 C 67.091 181.934,68.927 180.346,69.904 179.481 C 70.881 178.615,72.733 177.033,74.020 175.965 C 75.306 174.897,77.872 172.705,79.721 171.094 C 86.037 165.590,87.700 164.168,94.141 158.757 C 97.686 155.779,108.145 146.847,117.383 138.909 C 137.102 121.963,156.129 105.678,187.489 78.906 C 197.661 70.223,199.411 69.368,203.108 71.280 " stroke="none" fill="#0c2b4b" fill-rule="evenodd"></path><path id="path3" d="M69.262 197.167 C 72.444 197.233,77.542 197.233,80.590 197.167 C 83.639 197.101,81.035 197.047,74.805 197.047 C 68.574 197.048,66.080 197.102,69.262 197.167 M319.458 197.167 C 322.747 197.233,328.021 197.233,331.176 197.167 C 334.332 197.101,331.641 197.048,325.195 197.048 C 318.750 197.048,316.168 197.102,319.458 197.167 M310.737 262.305 C 310.737 296.250,310.783 310.079,310.840 293.036 C 310.896 275.992,310.896 248.219,310.840 231.317 C 310.783 214.415,310.737 228.359,310.737 262.305 M191.583 252.051 L 190.039 253.711 191.699 252.167 C 193.243 250.731,193.539 250.391,193.243 250.391 C 193.180 250.391,192.432 251.138,191.583 252.051 M197.254 256.543 L 194.727 259.180 197.363 256.652 C 198.813 255.262,200.000 254.075,200.000 254.015 C 200.000 253.728,199.602 254.094,197.254 256.543 M222.923 274.902 C 227.045 274.965,233.900 274.965,238.158 274.902 C 242.415 274.839,239.043 274.787,230.664 274.787 C 222.285 274.787,218.802 274.839,222.923 274.902 M129.395 276.758 C 129.400 277.617,129.480 277.923,129.573 277.437 C 129.667 276.951,129.663 276.248,129.565 275.874 C 129.467 275.501,129.391 275.898,129.395 276.758 M248.621 302.539 C 248.621 315.645,248.670 320.949,248.730 314.327 C 248.790 307.705,248.790 296.983,248.730 290.499 C 248.670 284.016,248.621 289.434,248.621 302.539 " stroke="none" fill="#84949c" fill-rule="evenodd"></path></g></svg>