<svg id="svg" version="1.1" xmlns="http://www.w3.org/2000/svg" xmlns:xlink="http://www.w3.org/1999/xlink" width="400" height="401.36054421768705" viewBox="0, 0, 400,401.36054421768705"><g id="svgg"><path id="path0" d="M262.800 68.724 C 262.800 68.956,263.160 69.260,263.600 69.400 C 264.040 69.540,264.400 69.803,264.400 69.984 C 264.400 70.166,264.670 70.418,265.000 70.545 C 265.430 70.709,265.600 70.505,265.600 69.825 C 265.600 69.071,265.434 68.918,264.798 69.085 C 264.357 69.200,263.727 69.071,263.398 68.798 C 263.025 68.489,262.800 68.461,262.800 68.724 M186.918 82.298 C 188.633 82.373,191.333 82.372,192.918 82.297 C 194.503 82.221,193.100 82.159,189.800 82.160 C 186.500 82.161,185.203 82.222,186.918 82.298 M178.400 83.182 C 176.672 83.434,176.646 83.458,177.740 83.776 C 178.537 84.007,179.260 83.918,180.140 83.479 C 181.483 82.810,181.242 82.768,178.400 83.182 M201.000 83.600 C 201.314 84.107,202.815 84.107,203.600 83.600 C 204.039 83.316,203.737 83.211,202.476 83.206 C 201.428 83.202,200.850 83.357,201.000 83.600 M174.567 84.346 C 174.766 84.669,176.800 84.493,176.800 84.153 C 176.800 84.069,176.249 84.000,175.576 84.000 C 174.903 84.000,174.449 84.156,174.567 84.346 M171.000 85.600 C 170.864 85.820,170.313 86.000,169.776 86.000 C 169.239 86.000,168.800 86.180,168.800 86.400 C 168.800 86.620,168.989 86.800,169.220 86.800 C 169.736 86.800,172.000 85.652,172.000 85.390 C 172.000 85.038,171.250 85.196,171.000 85.600 M211.400 85.600 C 212.493 86.069,212.800 86.069,212.800 85.600 C 212.800 85.380,212.305 85.213,211.700 85.228 C 210.725 85.253,210.691 85.295,211.400 85.600 M213.400 86.400 C 213.536 86.620,213.907 86.800,214.224 86.800 C 214.541 86.800,214.800 86.620,214.800 86.400 C 214.800 86.180,214.429 86.000,213.976 86.000 C 213.523 86.000,213.264 86.180,213.400 86.400 M165.600 87.600 C 165.600 87.820,165.364 88.000,165.075 88.000 C 164.787 88.000,164.198 88.329,163.767 88.730 C 163.336 89.132,162.762 89.387,162.491 89.297 C 162.221 89.207,162.000 89.328,162.000 89.567 C 162.000 89.805,161.719 90.000,161.376 90.000 C 161.033 90.000,160.840 90.142,160.948 90.315 C 161.055 90.488,160.605 90.868,159.948 91.159 C 159.291 91.450,158.826 91.759,158.913 91.847 C 159.077 92.010,164.296 89.429,165.900 88.390 C 166.937 87.719,167.068 87.200,166.200 87.200 C 165.870 87.200,165.600 87.380,165.600 87.600 M219.393 88.866 C 219.999 89.342,220.746 90.287,221.054 90.966 C 221.560 92.083,221.603 92.105,221.507 91.200 C 221.406 90.253,219.406 88.020,218.646 88.006 C 218.451 88.003,218.788 88.390,219.393 88.866 M156.000 93.800 C 155.483 94.350,154.822 94.800,154.530 94.800 C 154.239 94.800,154.000 94.952,154.000 95.137 C 154.000 95.322,153.374 95.811,152.610 96.223 C 151.845 96.634,151.128 97.210,151.017 97.501 C 150.905 97.792,151.412 97.574,152.144 97.015 C 152.877 96.457,153.647 96.000,153.857 96.000 C 154.066 96.000,154.941 95.280,155.800 94.400 C 156.659 93.520,157.267 92.800,157.151 92.800 C 157.035 92.800,156.517 93.250,156.000 93.800 M148.979 99.384 C 148.350 99.925,147.917 100.442,148.017 100.534 C 148.118 100.625,148.740 100.182,149.400 99.550 C 150.866 98.146,150.561 98.025,148.979 99.384 M144.982 103.340 C 144.071 104.342,143.946 104.946,144.823 104.111 C 145.336 103.622,145.676 103.145,145.578 103.051 C 145.480 102.958,145.212 103.088,144.982 103.340 M138.400 112.967 C 138.400 113.278,138.193 113.602,137.940 113.687 C 137.687 113.771,137.568 114.101,137.676 114.420 C 137.808 114.812,138.089 114.579,138.546 113.700 C 138.918 112.984,139.036 112.400,138.810 112.400 C 138.585 112.400,138.400 112.655,138.400 112.967 M134.558 122.300 C 134.439 122.685,134.175 123.313,133.971 123.695 C 133.466 124.640,133.502 125.708,134.027 125.383 C 134.262 125.238,134.360 124.873,134.245 124.572 C 134.129 124.272,134.186 123.933,134.370 123.819 C 134.710 123.608,135.219 121.600,134.932 121.600 C 134.846 121.600,134.677 121.915,134.558 122.300 M252.708 133.782 C 251.449 134.982,250.570 136.058,250.756 136.173 C 250.941 136.287,252.134 135.404,253.407 134.210 C 254.679 133.017,256.099 131.965,256.560 131.874 C 257.147 131.759,257.038 131.693,256.198 131.654 C 255.252 131.612,254.511 132.063,252.708 133.782 M257.808 132.706 C 258.033 132.868,258.444 133.518,258.723 134.152 C 259.002 134.785,259.314 135.219,259.417 135.117 C 259.736 134.798,258.368 132.400,257.871 132.406 C 257.566 132.410,257.544 132.516,257.808 132.706 M132.531 135.400 C 132.533 136.940,132.605 137.521,132.692 136.691 C 132.779 135.861,132.777 134.601,132.689 133.891 C 132.600 133.181,132.529 133.860,132.531 135.400 M132.540 142.800 C 132.540 144.670,132.609 145.435,132.693 144.500 C 132.777 143.565,132.777 142.035,132.693 141.100 C 132.609 140.165,132.540 140.930,132.540 142.800 M241.777 143.767 C 241.350 144.079,241.107 144.440,241.236 144.570 C 241.366 144.699,241.798 144.444,242.198 144.002 C 243.048 143.063,242.873 142.966,241.777 143.767 M236.846 148.247 C 235.222 149.871,233.636 151.200,233.323 151.200 C 233.009 151.200,232.841 151.342,232.948 151.516 C 233.055 151.690,232.618 152.185,231.976 152.616 C 231.334 153.047,230.706 153.670,230.579 153.999 C 230.452 154.329,230.855 154.125,231.474 153.545 C 232.093 152.965,233.140 152.214,233.800 151.875 C 235.306 151.102,241.190 145.183,240.390 145.247 C 240.065 145.273,238.471 146.623,236.846 148.247 M133.600 154.953 C 133.600 155.283,133.780 155.664,134.000 155.800 C 134.220 155.936,134.400 155.777,134.400 155.447 C 134.400 155.117,134.220 154.736,134.000 154.600 C 133.780 154.464,133.600 154.623,133.600 154.953 M227.235 157.100 C 223.399 160.746,221.954 162.000,221.591 162.000 C 221.406 162.000,221.153 162.319,221.029 162.708 C 220.906 163.097,220.174 163.755,219.402 164.171 C 218.631 164.586,218.000 165.056,218.000 165.214 C 218.000 165.373,217.454 165.729,216.787 166.005 C 216.120 166.282,215.670 166.603,215.786 166.720 C 216.489 167.422,220.642 164.369,225.200 159.800 C 230.285 154.703,231.617 152.935,227.235 157.100 M187.400 158.400 C 187.536 158.620,187.917 158.800,188.247 158.800 C 188.577 158.800,188.736 158.620,188.600 158.400 C 188.464 158.180,188.083 158.000,187.753 158.000 C 187.423 158.000,187.264 158.180,187.400 158.400 M133.600 164.424 C 133.600 164.877,133.780 165.136,134.000 165.000 C 134.220 164.864,134.400 164.493,134.400 164.176 C 134.400 163.859,134.220 163.600,134.000 163.600 C 133.780 163.600,133.600 163.971,133.600 164.424 M377.301 166.600 C 377.305 167.480,377.387 167.793,377.483 167.295 C 377.579 166.798,377.575 166.078,377.475 165.695 C 377.375 165.313,377.296 165.720,377.301 166.600 M132.600 167.200 C 132.451 168.080,132.166 168.800,131.965 168.800 C 131.764 168.800,131.600 169.106,131.600 169.480 C 131.600 170.010,131.706 170.054,132.082 169.678 C 132.665 169.095,133.600 165.600,133.173 165.600 C 133.007 165.600,132.749 166.320,132.600 167.200 M129.489 172.805 C 129.110 173.247,128.800 173.772,128.800 173.971 C 128.800 174.170,128.615 174.425,128.390 174.537 C 128.165 174.649,128.208 174.694,128.486 174.638 C 128.765 174.582,129.326 173.965,129.733 173.268 C 130.581 171.816,130.487 171.638,129.489 172.805 M373.789 172.552 C 373.355 172.855,372.640 173.195,372.200 173.306 L 371.400 173.507 372.200 173.545 C 372.640 173.565,373.450 173.230,374.000 172.800 C 375.141 171.907,374.980 171.719,373.789 172.552 M365.659 174.431 C 362.084 174.895,361.709 175.213,364.899 175.077 C 366.383 175.014,367.814 174.746,368.079 174.481 C 368.343 174.217,368.479 174.023,368.380 174.051 C 368.281 174.079,367.057 174.250,365.659 174.431 M19.000 174.800 C 20.116 175.280,21.296 175.280,21.000 174.800 C 20.864 174.580,20.178 174.413,19.476 174.428 C 18.400 174.452,18.326 174.510,19.000 174.800 M45.000 176.000 C 45.136 176.220,46.137 176.400,47.224 176.400 C 48.311 176.400,49.200 176.220,49.200 176.000 C 49.200 175.780,48.199 175.600,46.976 175.600 C 45.596 175.600,44.847 175.752,45.000 176.000 M337.900 176.487 C 336.843 177.810,337.061 178.503,338.182 177.382 C 338.722 176.842,339.611 176.400,340.158 176.400 C 340.705 176.400,341.264 176.220,341.400 176.000 C 341.940 175.127,338.617 175.589,337.900 176.487 M124.582 178.140 C 123.671 179.142,123.546 179.746,124.423 178.911 C 124.936 178.422,125.276 177.945,125.178 177.851 C 125.080 177.758,124.812 177.888,124.582 178.140 M110.982 191.740 C 110.071 192.742,109.946 193.346,110.823 192.511 C 111.336 192.022,111.676 191.545,111.578 191.451 C 111.480 191.358,111.212 191.488,110.982 191.740 M108.400 194.400 C 107.893 194.840,107.657 195.200,107.877 195.200 C 108.096 195.200,108.602 194.840,109.000 194.400 C 109.398 193.960,109.634 193.600,109.523 193.600 C 109.413 193.600,108.907 193.960,108.400 194.400 M102.500 200.219 C 101.345 201.372,100.400 202.439,100.400 202.592 C 100.400 202.744,101.425 201.868,102.677 200.645 C 103.930 199.422,104.875 198.354,104.777 198.272 C 104.680 198.189,103.655 199.066,102.500 200.219 M95.852 206.840 C 94.561 208.158,93.571 209.303,93.652 209.382 C 93.733 209.462,94.946 208.373,96.348 206.963 C 97.749 205.554,98.739 204.409,98.548 204.421 C 98.356 204.432,97.143 205.521,95.852 206.840 M90.945 211.800 C 90.818 212.130,90.434 212.400,90.091 212.400 C 89.747 212.400,89.572 212.505,89.700 212.633 C 89.970 212.904,88.572 214.400,88.049 214.400 C 87.544 214.400,86.700 215.505,86.862 215.953 C 86.938 216.162,88.146 215.178,89.548 213.767 C 90.949 212.355,91.888 211.200,91.635 211.200 C 91.382 211.200,91.071 211.470,90.945 211.800 M85.000 217.200 C 84.860 217.640,84.601 218.000,84.424 218.000 C 84.247 218.000,83.224 218.911,82.151 220.025 C 81.078 221.139,79.974 222.264,79.698 222.525 C 79.110 223.081,73.586 228.579,73.000 229.191 C 72.780 229.421,68.065 234.107,62.522 239.605 C 56.979 245.102,52.710 249.600,53.035 249.600 C 53.580 249.600,86.400 217.180,86.400 216.641 C 86.400 216.022,85.225 216.492,85.000 217.200 M219.600 227.967 C 210.052 228.345,209.488 228.971,210.842 237.695 C 211.743 243.500,207.902 248.207,201.245 249.455 C 200.450 249.604,199.234 250.044,198.543 250.432 C 195.232 252.291,192.156 251.726,188.887 248.659 C 180.424 240.717,180.241 240.704,174.236 247.603 C 173.376 248.591,171.306 250.850,169.636 252.622 C 167.966 254.394,165.805 256.734,164.834 257.822 C 163.862 258.910,162.360 260.545,161.495 261.455 L 159.922 263.109 160.649 264.255 C 161.303 265.285,164.939 269.620,167.000 271.826 C 171.230 276.355,171.599 277.829,169.592 282.200 C 168.462 284.661,164.590 289.956,163.673 290.294 C 163.303 290.430,162.901 290.687,162.780 290.865 C 162.659 291.043,159.189 291.353,155.069 291.555 C 150.262 291.790,147.366 292.096,146.989 292.409 C 145.956 293.267,146.135 316.915,147.193 319.383 C 148.397 322.193,150.014 322.780,156.585 322.791 L 161.769 322.800 163.817 325.001 C 164.944 326.211,166.121 327.696,166.432 328.301 C 166.744 328.905,167.095 329.490,167.214 329.600 C 167.332 329.710,168.187 331.283,169.114 333.096 C 171.993 338.725,171.533 339.989,163.838 347.592 C 158.195 353.168,157.692 351.989,171.813 366.297 L 178.626 373.200 180.713 373.200 C 181.861 373.200,182.800 373.059,182.800 372.886 C 182.800 372.714,183.295 372.269,183.900 371.899 C 184.505 371.528,185.990 370.295,187.200 369.158 C 193.102 363.613,194.727 362.877,197.825 364.347 C 200.509 365.621,202.775 366.582,206.118 367.864 C 210.720 369.630,211.467 371.508,210.798 379.630 C 210.528 382.903,210.412 385.856,210.541 386.191 C 210.824 386.928,238.800 387.135,238.800 386.400 C 238.800 386.180,239.026 386.000,239.302 386.000 C 240.232 386.000,240.718 383.829,240.973 378.536 C 241.308 371.548,242.032 370.208,246.693 367.932 C 247.742 367.420,248.690 366.901,248.800 366.778 C 249.175 366.361,252.994 364.701,254.850 364.149 C 257.500 363.361,258.637 363.977,263.400 368.790 C 270.487 375.950,269.184 376.295,281.503 364.000 C 293.008 352.518,292.804 353.175,286.769 347.078 C 279.546 339.781,279.457 339.259,283.865 330.113 C 286.882 323.855,287.578 323.492,297.800 322.861 C 306.303 322.336,305.826 323.317,305.498 307.016 C 305.169 290.655,305.154 290.628,295.580 290.319 C 290.516 290.155,289.602 290.020,288.200 289.226 C 285.467 287.677,285.570 287.808,282.546 282.000 C 281.916 280.790,281.310 279.710,281.200 279.600 C 278.455 276.855,279.757 273.863,286.553 267.298 C 292.643 261.415,292.809 261.958,281.501 250.751 C 272.530 241.860,268.800 239.047,268.800 241.171 C 268.800 241.375,268.537 241.600,268.215 241.671 C 267.893 241.742,265.662 243.744,263.257 246.120 C 257.585 251.724,257.939 251.690,249.429 247.434 C 240.935 243.185,241.098 243.417,241.165 235.660 C 241.237 227.365,241.713 227.811,232.736 227.761 C 228.921 227.740,223.010 227.833,219.600 227.967 M230.000 275.198 C 238.347 276.451,245.600 280.991,250.714 288.165 C 251.641 289.466,252.400 290.771,252.400 291.065 C 252.400 291.359,252.536 291.600,252.702 291.600 C 253.024 291.600,253.543 292.687,254.613 295.600 C 254.977 296.590,255.414 297.760,255.584 298.200 C 257.187 302.347,257.126 314.607,255.494 316.240 C 255.332 316.401,255.200 316.784,255.200 317.090 C 255.200 318.373,251.731 324.571,249.605 327.086 C 245.935 331.427,242.112 334.183,236.800 336.318 C 233.240 337.748,232.860 337.800,226.000 337.800 C 218.667 337.800,217.396 337.595,213.289 335.749 C 212.128 335.227,211.071 334.800,210.940 334.800 C 210.361 334.800,205.216 330.862,203.394 329.024 C 194.257 319.807,191.839 305.336,197.422 293.289 C 197.960 292.128,198.400 291.018,198.400 290.822 C 198.400 290.627,198.538 290.407,198.707 290.333 C 198.876 290.260,199.596 289.285,200.306 288.167 C 202.359 284.935,207.313 280.456,210.737 278.736 C 211.762 278.221,212.690 277.709,212.800 277.597 C 213.017 277.376,216.048 276.358,218.600 275.649 C 221.498 274.844,226.363 274.652,230.000 275.198 M334.926 359.100 C 334.789 359.485,334.601 359.980,334.509 360.200 C 334.416 360.420,334.624 360.251,334.970 359.824 C 335.599 359.048,335.789 358.400,335.387 358.400 C 335.271 358.400,335.063 358.715,334.926 359.100 M334.000 361.105 C 334.000 361.346,333.709 361.834,333.352 362.190 C 332.996 362.547,332.802 362.935,332.920 363.054 C 333.039 363.172,333.445 362.798,333.822 362.222 C 334.200 361.646,334.394 361.061,334.254 360.921 C 334.114 360.781,334.000 360.864,334.000 361.105 M330.800 365.558 C 330.800 366.194,327.919 368.800,327.217 368.800 C 326.988 368.800,326.800 368.950,326.800 369.132 C 326.800 369.315,326.350 369.706,325.801 370.000 C 324.284 370.811,324.863 370.897,326.469 370.098 C 328.929 368.876,331.974 365.879,331.226 365.416 C 330.992 365.271,330.800 365.335,330.800 365.558 M323.000 371.200 C 322.864 371.420,322.403 371.600,321.976 371.600 C 321.549 371.600,321.200 371.767,321.200 371.972 C 321.200 372.200,321.693 372.203,322.473 371.979 C 323.986 371.545,324.890 370.800,323.904 370.800 C 323.543 370.800,323.136 370.980,323.000 371.200 M70.200 373.200 C 70.336 373.420,70.897 373.600,71.447 373.600 C 72.012 373.600,72.340 373.426,72.200 373.200 C 72.064 372.980,71.503 372.800,70.953 372.800 C 70.388 372.800,70.060 372.974,70.200 373.200 M314.800 373.200 C 315.585 373.707,317.086 373.707,317.400 373.200 C 317.550 372.957,316.972 372.802,315.924 372.806 C 314.663 372.811,314.361 372.916,314.800 373.200 M281.018 374.218 C 279.601 375.636,279.732 375.720,281.797 374.717 C 283.002 374.131,283.430 373.739,283.097 373.528 C 282.338 373.046,282.117 373.119,281.018 374.218 M272.400 380.792 C 272.400 381.008,271.950 381.298,271.400 381.436 C 270.850 381.574,270.400 381.847,270.400 382.043 C 270.400 382.516,270.470 382.503,271.931 381.775 C 273.398 381.042,273.909 380.400,273.024 380.400 C 272.681 380.400,272.400 380.577,272.400 380.792 M266.400 384.233 C 265.850 384.539,265.580 384.809,265.800 384.834 C 266.020 384.859,265.752 385.004,265.204 385.157 C 264.557 385.337,264.375 385.537,264.685 385.729 C 264.963 385.901,265.711 385.523,266.481 384.823 C 267.926 383.509,267.911 383.395,266.400 384.233 M262.176 386.587 C 261.749 386.910,261.085 387.180,260.700 387.187 C 260.315 387.194,260.000 387.380,260.000 387.600 C 260.000 387.820,259.595 388.021,259.100 388.046 C 258.389 388.083,258.351 388.132,258.922 388.280 C 259.762 388.498,263.200 386.985,263.200 386.398 C 263.200 385.873,263.095 385.893,262.176 386.587 M255.000 389.600 C 254.864 389.820,255.023 390.000,255.353 390.000 C 255.683 390.000,256.064 389.820,256.200 389.600 C 256.336 389.380,256.177 389.200,255.847 389.200 C 255.517 389.200,255.136 389.380,255.000 389.600 M244.263 392.494 C 243.995 392.664,244.220 392.788,244.800 392.788 C 245.350 392.788,246.053 392.628,246.361 392.432 C 246.760 392.180,246.605 392.095,245.825 392.138 C 245.221 392.172,244.518 392.332,244.263 392.494 M210.664 393.672 C 211.262 393.961,211.879 393.963,212.664 393.677 C 213.712 393.295,213.645 393.263,211.800 393.259 C 210.126 393.255,209.941 393.322,210.664 393.672 M236.400 393.600 C 236.400 393.820,236.839 394.000,237.376 394.000 C 237.913 394.000,238.464 393.820,238.600 393.600 C 238.744 393.367,238.337 393.200,237.624 393.200 C 236.951 393.200,236.400 393.380,236.400 393.600 " stroke="none" fill="#fbfbfb" fill-rule="evenodd"></path><path id="path1" d="M189.807 17.189 C 189.674 17.403,188.989 17.857,188.283 18.198 C 187.577 18.538,185.775 19.984,184.278 21.412 C 182.780 22.839,180.890 24.349,180.078 24.768 C 179.265 25.187,177.970 26.190,177.200 26.996 C 176.430 27.803,175.260 28.702,174.600 28.995 C 173.940 29.288,172.410 30.489,171.200 31.664 C 169.990 32.839,168.280 34.274,167.400 34.853 C 166.520 35.433,164.832 36.783,163.648 37.853 C 162.465 38.924,161.079 39.980,160.568 40.200 C 160.057 40.420,158.686 41.502,157.520 42.604 C 156.354 43.706,154.680 45.136,153.800 45.783 C 152.920 46.429,151.196 47.823,149.969 48.879 C 148.742 49.936,147.476 50.800,147.156 50.800 C 146.837 50.800,145.501 51.894,144.187 53.231 C 142.874 54.567,141.234 55.962,140.542 56.331 C 139.849 56.699,138.178 58.035,136.827 59.300 C 135.476 60.565,134.132 61.600,133.840 61.600 C 133.548 61.600,131.980 62.854,130.355 64.387 C 128.730 65.920,127.130 67.181,126.800 67.190 C 126.470 67.200,125.120 68.273,123.800 69.576 C 122.480 70.880,121.040 72.049,120.600 72.176 C 120.160 72.302,118.450 73.663,116.800 75.199 C 115.150 76.735,113.522 77.993,113.183 77.996 C 112.844 77.998,111.764 78.820,110.783 79.823 C 109.802 80.826,108.100 82.253,107.000 82.994 C 105.900 83.735,103.949 85.344,102.664 86.570 C 101.379 87.797,100.089 88.800,99.797 88.800 C 99.506 88.800,98.397 89.618,97.334 90.618 C 96.270 91.617,94.860 92.698,94.200 93.019 C 93.540 93.340,91.871 94.682,90.492 96.001 C 89.113 97.321,87.851 98.400,87.689 98.400 C 87.527 98.400,86.263 99.386,84.881 100.592 C 83.498 101.798,81.520 103.356,80.484 104.055 C 79.448 104.755,77.403 106.468,75.939 107.863 C 74.475 109.258,73.095 110.400,72.872 110.400 C 72.648 110.400,71.554 111.178,70.441 112.128 C 69.328 113.078,67.918 114.108,67.308 114.416 C 66.699 114.724,65.087 116.045,63.727 117.353 C 62.367 118.660,60.747 119.954,60.127 120.229 C 59.507 120.504,57.871 121.825,56.492 123.164 C 55.113 124.504,53.763 125.606,53.492 125.614 C 53.221 125.621,51.830 126.717,50.400 128.048 C 48.970 129.380,47.170 130.799,46.400 131.203 C 45.630 131.606,44.016 132.941,42.814 134.168 C 41.611 135.396,40.351 136.407,40.014 136.415 C 39.676 136.424,38.055 137.684,36.410 139.215 C 34.766 140.747,33.221 142.000,32.978 142.000 C 32.735 142.000,31.740 142.733,30.768 143.628 C 29.796 144.523,28.251 145.738,27.335 146.328 C 26.419 146.918,24.889 148.124,23.935 149.008 C 22.981 149.893,21.390 151.203,20.400 151.921 C 17.844 153.772,12.471 159.103,11.744 160.507 C 10.111 163.666,11.647 172.670,13.753 172.282 C 13.999 172.237,14.161 172.407,14.114 172.659 C 14.064 172.923,14.342 173.036,14.769 172.924 C 15.176 172.818,15.631 172.926,15.778 173.165 C 15.926 173.404,16.566 173.600,17.200 173.600 C 17.834 173.600,18.469 173.789,18.612 174.019 C 18.754 174.250,19.170 174.409,19.535 174.373 C 21.226 174.207,22.208 174.407,21.600 174.793 C 21.210 175.040,24.956 175.213,32.300 175.287 C 38.515 175.349,43.600 175.265,43.600 175.100 C 43.600 174.935,44.545 174.813,45.700 174.829 C 47.809 174.859,50.200 175.852,50.200 176.699 C 50.200 176.938,50.335 177.268,50.500 177.433 C 50.665 177.598,50.806 193.588,50.813 212.967 C 50.823 240.297,50.936 248.346,51.320 248.849 C 51.749 249.413,54.308 247.030,70.859 230.649 C 81.334 220.282,94.173 207.660,99.390 202.600 C 121.841 180.824,126.531 176.098,128.616 173.158 C 130.743 170.158,133.600 164.564,133.600 163.398 C 133.600 163.069,133.780 162.800,134.000 162.800 C 134.511 162.800,134.533 157.314,134.022 157.133 C 133.815 157.060,133.547 156.100,133.427 155.000 C 133.308 153.900,133.010 151.830,132.765 150.400 C 132.155 146.834,131.899 132.081,132.424 130.773 C 132.651 130.208,132.859 128.948,132.887 127.973 C 132.914 126.998,133.102 125.983,133.303 125.718 C 133.504 125.452,133.573 125.079,133.455 124.889 C 133.337 124.698,133.484 124.073,133.782 123.500 C 134.080 122.926,134.220 122.354,134.094 122.228 C 133.968 122.102,134.057 121.594,134.292 121.099 C 135.165 119.258,136.000 117.271,136.000 117.035 C 136.000 116.566,137.772 112.995,138.246 112.509 C 138.510 112.239,138.966 111.474,139.260 110.809 C 139.554 110.144,139.912 109.600,140.054 109.600 C 140.197 109.600,140.418 109.195,140.547 108.700 C 140.828 107.615,143.074 104.962,143.598 105.095 C 143.803 105.148,143.871 104.930,143.749 104.612 C 143.439 103.804,149.428 97.848,150.238 98.159 C 150.570 98.287,150.749 98.241,150.636 98.059 C 150.276 97.476,156.886 92.000,157.950 92.000 C 158.161 92.000,158.393 91.858,158.467 91.686 C 158.616 91.333,160.908 89.666,162.294 88.900 C 164.971 87.422,165.459 87.205,166.100 87.202 C 166.485 87.201,166.800 87.049,166.800 86.865 C 166.800 86.681,167.835 86.186,169.100 85.767 C 170.365 85.347,171.490 84.894,171.600 84.761 C 171.811 84.506,172.393 84.343,176.073 83.505 C 177.323 83.220,178.478 82.855,178.640 82.694 C 178.801 82.532,179.703 82.400,180.643 82.400 C 181.583 82.400,182.464 82.220,182.600 82.000 C 182.944 81.443,196.507 81.467,197.065 82.025 C 197.299 82.259,198.460 82.507,199.645 82.576 C 202.434 82.739,205.346 83.242,205.600 83.606 C 206.023 84.211,207.600 84.463,207.612 83.927 C 207.620 83.570,207.746 83.609,208.002 84.046 C 208.251 84.472,208.726 84.627,209.392 84.499 C 209.949 84.393,210.629 84.484,210.902 84.701 C 211.176 84.918,212.055 85.214,212.857 85.358 C 217.563 86.205,221.603 88.868,221.594 91.117 C 221.590 92.078,221.469 92.413,221.250 92.068 C 221.009 91.688,220.847 91.864,220.683 92.685 C 220.389 94.153,214.809 99.475,214.200 98.867 C 214.054 98.720,213.993 98.842,214.067 99.137 C 214.140 99.433,213.840 99.883,213.400 100.137 C 212.960 100.392,210.576 102.535,208.103 104.900 C 205.629 107.265,203.323 109.200,202.979 109.200 C 202.635 109.200,202.447 109.353,202.563 109.540 C 202.678 109.727,202.329 110.265,201.786 110.737 C 201.244 111.209,200.800 111.386,200.800 111.131 C 200.800 110.875,200.665 110.802,200.500 110.967 C 200.335 111.132,200.200 111.457,200.200 111.690 C 200.200 111.922,199.854 112.312,199.432 112.556 C 199.009 112.800,196.297 115.340,193.405 118.200 C 190.512 121.060,187.471 123.750,186.646 124.177 C 185.822 124.605,184.607 125.570,183.946 126.322 L 182.745 127.690 182.947 133.745 C 183.058 137.075,183.265 140.520,183.406 141.400 C 183.548 142.280,183.759 145.025,183.875 147.500 C 183.991 149.975,184.247 152.000,184.443 152.000 C 184.639 152.000,184.800 152.732,184.800 153.627 C 184.800 155.418,186.958 158.000,188.456 158.000 C 188.865 158.000,189.200 158.188,189.200 158.418 C 189.200 158.647,189.425 158.806,189.700 158.770 C 190.671 158.644,191.245 158.804,191.036 159.142 C 190.919 159.330,191.248 159.403,191.765 159.305 C 192.283 159.206,192.828 159.322,192.977 159.562 C 193.125 159.803,193.657 160.000,194.157 160.000 C 194.657 160.000,195.202 160.135,195.367 160.300 C 195.532 160.465,195.787 160.608,195.933 160.617 C 196.961 160.683,202.130 162.588,202.626 163.083 C 202.963 163.420,203.339 163.594,203.463 163.470 C 203.587 163.347,204.340 163.595,205.138 164.023 C 205.936 164.450,207.050 164.800,207.614 164.800 C 208.178 164.800,208.817 164.977,209.034 165.194 C 209.642 165.802,213.350 166.390,214.943 166.132 C 216.653 165.854,220.381 162.856,227.667 155.900 C 228.070 155.515,228.580 155.200,228.800 155.200 C 229.020 155.200,229.200 155.001,229.200 154.757 C 229.200 154.514,229.468 154.417,229.795 154.543 C 230.123 154.668,230.348 154.625,230.295 154.447 C 230.179 154.053,232.867 151.098,235.024 149.248 C 235.891 148.505,237.770 146.794,239.200 145.446 C 240.630 144.098,243.240 141.738,245.000 140.201 C 246.760 138.665,248.346 137.176,248.525 136.894 C 249.519 135.326,255.002 131.200,256.092 131.200 C 257.303 131.200,259.569 133.036,259.632 134.069 C 259.650 134.361,259.735 135.050,259.821 135.600 C 259.906 136.150,260.084 137.320,260.216 138.200 C 260.347 139.080,260.558 140.070,260.684 140.400 C 261.416 142.319,261.681 152.335,261.080 155.400 C 260.908 156.280,260.626 158.530,260.454 160.400 C 260.282 162.270,259.864 164.340,259.526 165.000 C 259.188 165.660,258.804 167.405,258.673 168.878 C 258.542 170.351,258.262 171.881,258.052 172.278 C 257.841 172.675,257.185 174.440,256.594 176.200 C 255.490 179.484,254.815 181.153,253.599 183.600 C 251.998 186.826,251.374 187.889,250.121 189.531 C 249.394 190.482,248.800 191.427,248.800 191.631 C 248.800 192.107,242.516 198.400,242.040 198.400 C 241.842 198.400,240.722 199.120,239.551 200.000 C 238.380 200.880,237.247 201.600,237.033 201.600 C 236.819 201.600,236.184 202.036,235.622 202.568 C 233.884 204.215,226.589 207.560,223.200 208.265 C 222.650 208.379,221.606 208.739,220.880 209.065 C 220.153 209.391,218.893 209.754,218.080 209.873 C 217.266 209.992,215.829 210.339,214.886 210.644 C 213.851 210.980,211.443 211.200,208.810 211.200 C 206.333 211.200,204.340 211.373,204.200 211.600 C 203.892 212.099,201.095 212.128,200.580 211.638 C 200.371 211.439,198.670 211.170,196.800 211.041 C 192.032 210.711,191.281 210.615,190.954 210.288 C 190.796 210.129,189.932 209.988,189.033 209.974 C 186.690 209.937,182.398 208.970,183.400 208.705 C 183.840 208.588,182.760 208.485,181.000 208.475 C 178.876 208.462,178.069 208.572,178.600 208.800 C 179.161 209.041,179.220 209.162,178.800 209.204 C 171.633 209.928,168.054 211.555,163.372 216.217 C 161.543 218.037,159.316 219.963,158.422 220.496 C 157.529 221.028,156.883 221.549,156.987 221.653 C 157.090 221.757,155.613 223.363,153.703 225.221 C 151.794 227.079,150.582 228.150,151.009 227.600 C 151.681 226.737,151.613 226.759,150.508 227.761 C 149.804 228.400,149.341 229.120,149.478 229.361 C 149.616 229.603,149.572 229.658,149.381 229.484 C 149.190 229.310,132.376 245.805,112.017 266.140 C 91.658 286.475,74.465 303.358,73.811 303.656 C 73.157 303.955,72.707 304.320,72.811 304.468 C 73.110 304.891,71.129 306.803,70.680 306.526 C 70.458 306.389,70.389 306.458,70.526 306.680 C 70.663 306.902,70.350 307.483,69.831 307.971 C 69.311 308.459,68.806 308.710,68.709 308.529 C 68.611 308.348,68.579 308.406,68.637 308.657 C 68.781 309.283,67.022 310.882,66.606 310.504 C 66.422 310.337,66.384 310.398,66.522 310.640 C 66.660 310.882,66.329 311.465,65.786 311.937 C 65.244 312.409,64.800 312.684,64.800 312.548 C 64.800 312.413,64.532 312.524,64.204 312.796 C 63.877 313.068,63.707 313.450,63.828 313.645 C 63.949 313.840,63.840 314.000,63.588 314.000 C 62.942 314.000,60.805 316.084,61.047 316.476 C 61.157 316.654,61.041 316.800,60.788 316.800 C 59.779 316.800,53.396 323.366,51.917 325.926 L 50.834 327.800 50.831 340.400 C 50.829 350.593,50.938 353.191,51.400 354.000 C 51.714 354.550,51.979 355.630,51.987 356.400 C 51.996 357.170,52.362 358.389,52.801 359.110 C 53.241 359.830,53.600 360.586,53.600 360.790 C 53.600 362.022,59.698 368.800,60.806 368.800 C 61.049 368.800,61.119 369.008,60.962 369.262 C 60.784 369.549,60.852 369.615,61.141 369.437 C 61.396 369.279,62.127 369.521,62.764 369.975 C 63.402 370.429,64.211 370.800,64.562 370.800 C 64.913 370.800,65.200 370.980,65.200 371.200 C 65.200 371.420,65.695 371.603,66.300 371.606 C 67.048 371.610,67.231 371.720,66.871 371.948 C 65.689 372.697,72.023 372.800,119.287 372.800 L 168.463 372.800 169.958 374.300 C 171.687 376.033,174.447 378.197,174.932 378.199 C 175.115 378.199,175.495 378.515,175.776 378.900 C 176.058 379.285,176.628 379.603,177.044 379.606 C 177.679 379.611,177.704 379.675,177.200 380.000 C 176.704 380.321,176.698 380.389,177.169 380.394 C 177.481 380.397,178.097 380.715,178.537 381.100 C 178.977 381.485,179.197 381.561,179.025 381.268 C 178.854 380.975,179.349 381.153,180.127 381.662 C 181.060 382.274,181.381 382.691,181.070 382.889 C 180.807 383.056,181.172 383.190,181.903 383.194 C 182.788 383.198,183.483 383.520,184.075 384.200 C 184.553 384.750,185.272 385.200,185.672 385.200 C 186.072 385.200,186.400 385.366,186.400 385.568 C 186.400 385.771,186.985 386.052,187.700 386.193 C 189.706 386.590,191.213 387.256,190.974 387.642 C 190.856 387.834,191.033 387.885,191.369 387.757 C 191.705 387.628,192.591 387.900,193.337 388.361 C 194.084 388.822,195.089 389.200,195.571 389.200 C 196.053 389.200,196.344 389.367,196.218 389.571 C 196.092 389.774,196.982 390.065,198.195 390.217 C 199.408 390.368,200.400 390.629,200.400 390.796 C 200.400 391.161,202.532 391.706,204.200 391.767 C 204.923 391.794,205.360 392.008,205.300 392.306 C 205.245 392.580,205.601 392.803,206.100 392.807 C 209.797 392.837,216.224 393.367,216.333 393.652 C 216.505 394.101,233.485 394.110,233.762 393.661 C 233.878 393.474,236.177 393.197,238.872 393.045 C 241.568 392.892,243.877 392.600,244.004 392.394 C 244.131 392.188,244.627 391.960,245.107 391.887 C 245.587 391.814,246.104 391.629,246.256 391.477 C 246.409 391.325,247.123 391.200,247.843 391.200 C 248.563 391.200,249.264 391.020,249.400 390.800 C 249.536 390.580,250.083 390.400,250.616 390.400 C 251.725 390.400,254.098 389.574,258.400 387.692 C 259.390 387.259,260.596 386.782,261.079 386.632 C 261.861 386.389,264.712 384.917,268.200 382.953 C 268.860 382.582,270.718 381.405,272.329 380.339 C 273.941 379.273,275.526 378.400,275.853 378.400 C 276.180 378.400,276.346 378.236,276.222 378.035 C 276.098 377.835,276.852 377.041,277.898 376.272 C 278.944 375.502,280.236 374.406,280.770 373.836 L 281.739 372.800 299.296 372.800 C 311.297 372.800,317.113 372.661,317.675 372.360 C 318.319 372.015,318.429 372.030,318.183 372.428 C 317.957 372.793,318.066 372.860,318.567 372.668 C 318.951 372.521,319.746 372.397,320.333 372.394 C 321.169 372.389,321.270 372.304,320.800 372.000 C 320.190 371.606,320.711 371.375,321.763 371.574 C 321.963 371.611,322.233 371.495,322.363 371.316 C 322.494 371.136,323.437 370.568,324.459 370.053 C 325.482 369.538,327.540 368.010,329.033 366.658 C 330.526 365.306,331.908 364.249,332.103 364.310 C 332.299 364.370,332.345 364.234,332.204 364.007 C 332.064 363.780,332.283 363.101,332.691 362.497 C 333.423 361.415,334.341 359.555,335.108 357.600 C 335.324 357.050,335.699 356.105,335.942 355.500 C 336.258 354.711,336.387 329.654,336.399 266.700 C 336.408 218.465,336.527 178.550,336.664 178.000 C 336.996 176.664,337.961 175.600,338.838 175.600 C 339.231 175.600,339.664 175.420,339.800 175.200 C 340.085 174.739,342.800 174.649,342.800 175.100 C 342.800 175.265,347.255 175.334,352.700 175.253 C 358.288 175.170,362.164 174.969,361.600 174.793 C 360.616 174.485,362.253 174.284,366.266 174.220 C 366.962 174.209,367.667 174.065,367.833 173.900 C 367.998 173.735,368.733 173.600,369.467 173.600 C 370.200 173.600,370.800 173.420,370.800 173.200 C 370.800 172.980,371.236 172.800,371.769 172.800 C 374.657 172.800,377.230 168.841,376.579 165.400 C 376.407 164.493,376.453 164.346,376.770 164.800 C 377.026 165.168,377.190 165.216,377.194 164.924 C 377.197 164.662,377.020 164.336,376.800 164.200 C 376.580 164.064,376.400 163.243,376.400 162.376 C 376.400 161.491,376.206 160.800,375.957 160.800 C 375.714 160.800,375.609 160.554,375.724 160.253 C 375.952 159.660,372.707 156.240,371.145 155.427 C 370.625 155.156,370.249 154.711,370.310 154.438 C 370.370 154.164,370.248 154.047,370.039 154.176 C 369.829 154.306,368.969 153.779,368.129 153.005 C 367.288 152.232,365.843 151.118,364.918 150.531 C 363.994 149.944,363.329 149.314,363.442 149.132 C 363.555 148.949,363.349 148.800,362.983 148.800 C 362.618 148.800,361.503 147.995,360.505 147.011 C 359.506 146.026,358.561 145.301,358.403 145.398 C 358.245 145.496,357.699 145.131,357.188 144.588 C 356.678 144.044,356.427 143.596,356.630 143.591 C 356.834 143.586,356.403 143.288,355.673 142.928 C 354.943 142.568,353.787 141.681,353.103 140.956 C 352.420 140.232,351.732 139.718,351.576 139.815 C 351.150 140.078,350.360 138.978,350.703 138.599 C 350.867 138.419,350.782 138.397,350.515 138.550 C 350.248 138.704,349.675 138.508,349.242 138.115 C 347.025 136.101,345.157 134.600,344.868 134.600 C 344.689 134.600,343.926 134.039,343.172 133.354 C 339.074 129.631,338.000 128.726,338.000 128.998 C 338.000 129.163,337.732 129.076,337.404 128.804 C 337.077 128.532,336.925 128.122,337.066 127.893 C 337.216 127.650,337.130 127.596,336.859 127.764 C 336.599 127.924,336.289 127.775,336.154 127.425 C 336.022 127.081,335.683 126.800,335.401 126.800 C 335.118 126.800,333.932 125.855,332.765 124.700 C 331.598 123.545,330.803 122.870,330.999 123.200 C 331.304 123.716,331.260 123.724,330.681 123.255 C 330.311 122.955,330.110 122.545,330.234 122.345 C 330.358 122.144,330.311 122.026,330.130 122.082 C 329.522 122.269,327.196 120.650,327.661 120.362 C 327.929 120.197,327.727 119.969,327.153 119.788 C 326.629 119.624,325.788 119.047,325.284 118.507 C 324.780 117.967,324.150 117.491,323.884 117.451 C 323.034 117.322,322.379 116.757,322.623 116.362 C 322.753 116.152,322.688 116.030,322.478 116.090 C 322.268 116.151,321.070 115.309,319.815 114.220 C 318.560 113.131,317.143 112.037,316.667 111.788 C 316.190 111.538,315.849 111.111,315.910 110.838 C 315.970 110.564,315.878 110.428,315.705 110.535 C 315.233 110.827,313.937 109.752,314.021 109.137 C 314.062 108.842,314.038 95.010,313.969 78.400 C 313.900 61.790,313.734 50.090,313.600 52.400 L 313.357 56.600 313.231 52.200 C 313.162 49.780,313.134 47.575,313.170 47.300 C 313.206 47.025,313.047 46.800,312.818 46.800 C 312.588 46.800,312.398 46.575,312.395 46.300 C 312.392 46.025,311.765 45.395,311.001 44.900 L 309.611 44.000 289.353 44.000 L 269.094 44.000 267.758 45.417 C 265.639 47.664,265.498 48.691,265.657 60.734 C 265.735 66.710,265.738 71.600,265.661 71.600 C 265.235 71.600,261.818 68.241,261.913 67.915 C 261.974 67.700,261.808 67.597,261.542 67.686 C 261.277 67.774,260.498 67.331,259.811 66.701 C 259.125 66.071,258.121 65.325,257.581 65.045 C 257.042 64.764,256.645 64.324,256.700 64.067 C 256.755 63.810,256.665 63.636,256.500 63.680 C 256.335 63.724,255.570 63.364,254.800 62.881 C 254.030 62.398,253.670 62.000,254.000 61.996 C 254.407 61.991,254.328 61.829,253.757 61.494 C 251.247 60.022,249.598 58.727,249.806 58.390 C 249.941 58.172,249.749 58.121,249.355 58.273 C 248.948 58.429,248.768 58.375,248.913 58.141 C 249.047 57.924,248.581 57.420,247.878 57.022 C 247.175 56.623,246.015 55.680,245.300 54.926 C 244.585 54.172,244.000 53.787,244.000 54.069 C 244.000 54.351,243.219 53.731,242.264 52.691 C 241.309 51.651,240.372 50.800,240.183 50.800 C 239.993 50.800,239.259 50.239,238.552 49.553 C 237.844 48.867,236.846 48.097,236.333 47.841 C 235.820 47.586,235.400 47.112,235.400 46.788 C 235.400 46.465,235.175 46.178,234.900 46.150 C 234.625 46.123,234.209 46.078,233.976 46.050 C 233.743 46.023,233.664 45.820,233.800 45.600 C 233.936 45.380,233.804 45.200,233.506 45.200 C 233.208 45.200,232.192 44.480,231.249 43.600 C 230.305 42.720,229.303 42.000,229.022 42.000 C 228.742 42.000,228.174 41.550,227.761 41.000 C 227.348 40.450,226.858 40.000,226.672 40.000 C 226.486 40.000,225.548 39.235,224.587 38.300 C 223.627 37.365,222.606 36.592,222.320 36.582 C 222.034 36.572,221.849 36.333,221.910 36.052 C 221.970 35.771,221.856 35.642,221.655 35.766 C 221.455 35.890,221.068 35.723,220.796 35.396 C 220.524 35.068,220.459 34.793,220.651 34.784 C 220.843 34.776,220.460 34.529,219.800 34.237 C 219.140 33.944,217.888 33.006,217.017 32.152 C 216.146 31.299,215.380 30.646,215.315 30.702 C 215.050 30.932,213.600 29.773,213.600 29.331 C 213.600 29.068,213.208 28.730,212.729 28.578 C 212.250 28.426,211.237 27.697,210.477 26.959 C 209.717 26.221,208.966 25.697,208.808 25.795 C 208.434 26.026,206.792 24.142,207.099 23.834 C 207.228 23.705,207.053 23.600,206.710 23.600 C 206.367 23.600,205.192 22.795,204.098 21.812 C 203.004 20.829,202.017 20.116,201.904 20.229 C 201.792 20.342,201.260 19.931,200.723 19.317 C 198.779 17.093,190.824 15.542,189.807 17.189 M336.901 193.800 C 336.905 194.680,336.987 194.993,337.083 194.495 C 337.179 193.998,337.175 193.278,337.075 192.895 C 336.975 192.513,336.896 192.920,336.901 193.800 M336.977 220.800 C 336.977 227.290,337.032 229.945,337.099 226.700 C 337.166 223.455,337.166 218.145,337.099 214.900 C 337.032 211.655,336.977 214.310,336.977 220.800 M152.975 225.300 L 151.800 226.600 153.100 225.425 C 154.312 224.330,154.584 224.000,154.275 224.000 C 154.206 224.000,153.621 224.585,152.975 225.300 M238.600 227.242 C 241.577 228.056,241.600 228.120,241.600 235.462 C 241.600 239.554,241.750 242.000,242.000 242.000 C 242.220 242.000,242.400 242.193,242.400 242.429 C 242.400 243.196,243.313 243.771,249.520 246.907 C 257.950 251.167,257.497 251.226,263.640 245.072 C 270.304 238.396,269.365 238.121,281.727 250.358 C 293.399 261.911,293.308 261.627,287.178 267.499 C 280.253 274.134,279.525 275.611,281.473 279.086 C 282.063 280.139,283.188 282.172,283.973 283.605 C 286.063 287.421,286.040 287.393,288.060 288.511 C 289.728 289.433,290.514 289.566,295.660 289.798 C 305.716 290.251,305.828 290.462,306.254 309.729 C 306.543 322.813,306.442 322.983,298.200 323.355 C 287.554 323.836,286.963 324.176,283.544 331.800 C 280.087 339.509,280.062 339.407,287.400 347.096 C 293.243 353.219,293.424 352.644,282.045 364.130 C 269.466 376.828,270.616 376.522,263.158 369.156 C 257.675 363.741,256.186 363.404,250.774 366.356 C 249.578 367.008,247.632 368.037,246.448 368.643 C 242.362 370.735,241.756 371.996,241.392 379.169 C 240.953 387.833,242.237 387.241,224.164 387.105 L 210.200 387.000 210.069 383.400 C 209.997 381.420,210.161 378.585,210.433 377.100 C 211.419 371.721,209.667 369.380,203.000 367.168 C 202.120 366.876,201.229 366.493,201.020 366.318 C 200.811 366.143,200.316 366.000,199.920 366.000 C 199.524 366.000,199.200 365.843,199.200 365.652 C 199.200 365.063,195.711 364.290,194.271 364.560 C 192.844 364.828,191.673 365.705,186.966 370.030 C 180.635 375.847,180.727 375.875,169.490 364.537 C 164.600 359.603,160.528 355.349,160.440 355.083 C 160.352 354.817,160.110 354.489,159.902 354.353 C 158.413 353.380,159.431 351.278,163.222 347.502 C 171.095 339.658,171.354 339.015,168.775 333.728 C 166.512 329.089,165.423 327.391,163.240 325.100 L 161.430 323.200 156.099 323.200 C 146.066 323.200,145.880 322.879,145.833 305.466 C 145.792 289.955,145.172 290.800,156.587 290.800 C 163.223 290.800,163.986 290.422,167.000 285.635 C 167.220 285.286,167.504 284.910,167.631 284.800 C 168.031 284.454,169.200 281.900,169.200 281.372 C 169.200 281.094,169.415 280.795,169.677 280.708 C 170.268 280.511,170.373 276.095,169.798 275.686 C 169.576 275.529,168.406 274.230,167.198 272.800 C 165.989 271.370,164.870 270.142,164.711 270.070 C 164.184 269.834,160.400 264.895,160.400 264.443 C 160.400 264.199,160.220 264.000,160.000 264.000 C 158.650 264.000,159.740 262.496,165.642 256.213 C 167.095 254.666,169.255 252.324,170.442 251.010 C 180.429 239.948,180.544 239.920,187.601 246.830 C 191.941 251.080,194.496 251.841,198.281 250.012 C 199.179 249.578,200.653 249.105,201.556 248.961 C 202.460 248.816,203.200 248.541,203.200 248.349 C 203.200 248.157,203.467 248.000,203.794 248.000 C 207.169 248.000,211.355 242.262,210.424 238.911 C 209.128 234.245,210.050 229.201,212.400 228.097 C 214.339 227.186,235.832 226.485,238.600 227.242 M336.995 292.800 C 336.995 325.690,337.042 339.145,337.100 322.700 C 337.158 306.255,337.158 279.345,337.100 262.900 C 337.042 246.455,336.995 259.910,336.995 292.800 M219.200 275.961 C 218.870 276.146,217.903 276.423,217.051 276.576 C 216.199 276.729,215.209 277.002,214.851 277.183 C 214.493 277.363,213.210 278.006,212.000 278.611 C 205.321 281.953,200.268 287.544,197.189 295.000 C 196.916 295.660,196.544 296.560,196.362 297.000 C 194.558 301.356,194.566 312.361,196.377 316.600 C 196.565 317.040,197.019 318.120,197.386 319.000 C 198.307 321.206,198.959 322.563,199.212 322.800 C 199.330 322.910,200.010 323.924,200.724 325.053 C 203.003 328.655,208.302 333.068,212.600 334.941 C 213.480 335.325,214.513 335.810,214.895 336.019 C 215.277 336.229,215.916 336.400,216.315 336.400 C 216.714 336.400,217.265 336.625,217.540 336.900 C 217.905 337.265,220.085 337.400,225.600 337.400 C 231.115 337.400,233.295 337.265,233.660 336.900 C 233.935 336.625,234.563 336.400,235.056 336.400 C 235.549 336.400,236.051 336.240,236.172 336.045 C 236.293 335.850,237.023 335.572,237.796 335.427 C 238.568 335.282,239.200 334.992,239.200 334.782 C 239.200 334.572,239.384 334.400,239.610 334.400 C 242.201 334.400,252.800 323.809,252.800 321.219 C 252.800 320.989,252.980 320.800,253.200 320.800 C 253.420 320.800,253.600 320.476,253.600 320.080 C 253.600 319.684,253.763 319.189,253.963 318.980 C 254.350 318.575,255.009 316.535,255.700 313.600 C 256.494 310.235,256.165 299.987,255.219 298.600 C 255.069 298.380,254.599 297.075,254.173 295.700 C 253.748 294.325,253.265 293.200,253.100 293.200 C 252.935 293.200,252.800 292.995,252.800 292.745 C 252.800 290.683,245.309 282.144,241.770 280.171 C 241.347 279.934,240.370 279.394,239.600 278.971 C 238.830 278.547,238.110 278.103,238.000 277.985 C 237.824 277.795,236.338 277.313,231.772 275.963 C 230.232 275.508,220.011 275.506,219.200 275.961 " stroke="none" fill="#040404" fill-rule="evenodd"></path><path id="path2" d="M313.342 53.000 C 313.341 54.980,313.408 55.840,313.492 54.912 C 313.576 53.984,313.577 52.364,313.495 51.312 C 313.412 50.260,313.343 51.020,313.342 53.000 M264.287 70.409 C 264.995 71.151,265.642 71.678,265.725 71.579 C 265.808 71.481,265.229 70.873,264.438 70.229 L 263.000 69.058 264.287 70.409 M182.662 81.900 C 182.560 82.065,185.772 82.200,189.800 82.200 C 193.828 82.200,197.040 82.065,196.938 81.900 C 196.836 81.735,193.624 81.600,189.800 81.600 C 185.976 81.600,182.764 81.735,182.662 81.900 M212.800 85.628 C 212.800 85.833,213.214 86.000,213.720 86.000 C 214.226 86.000,214.811 86.157,215.020 86.348 C 215.229 86.540,215.940 86.802,216.600 86.932 C 217.756 87.158,217.748 87.143,216.400 86.534 C 214.290 85.580,212.800 85.205,212.800 85.628 M164.200 87.827 C 163.540 88.170,162.820 88.635,162.600 88.861 C 162.380 89.087,162.965 88.877,163.900 88.395 C 164.835 87.913,165.600 87.447,165.600 87.360 C 165.600 87.120,165.500 87.153,164.200 87.827 M160.200 90.250 C 159.540 90.812,159.360 91.088,159.800 90.865 C 160.996 90.258,162.257 89.225,161.800 89.227 C 161.580 89.228,160.860 89.688,160.200 90.250 M153.400 95.050 C 152.681 95.662,152.534 95.905,153.033 95.657 C 153.766 95.293,155.141 93.976,154.749 94.014 C 154.667 94.022,154.060 94.488,153.400 95.050 M148.180 99.443 C 147.311 100.223,146.960 100.670,147.400 100.437 C 148.528 99.840,150.148 98.414,149.937 98.203 C 149.840 98.106,149.049 98.664,148.180 99.443 M144.093 103.600 C 143.818 104.040,143.731 104.400,143.900 104.400 C 144.069 104.400,144.432 104.040,144.707 103.600 C 144.982 103.160,145.069 102.800,144.900 102.800 C 144.731 102.800,144.368 103.160,144.093 103.600 M136.811 114.945 C 136.585 115.525,136.224 116.450,136.010 117.000 C 135.330 118.742,135.928 118.079,136.786 116.138 C 137.239 115.114,137.523 114.189,137.416 114.083 C 137.310 113.976,137.037 114.364,136.811 114.945 M321.200 115.325 C 321.200 115.394,321.785 115.979,322.500 116.625 L 323.800 117.800 322.625 116.500 C 321.530 115.288,321.200 115.016,321.200 115.325 M132.249 131.015 C 132.112 131.373,132.025 132.416,132.056 133.333 C 132.109 134.901,132.129 134.870,132.392 132.800 C 132.690 130.455,132.651 129.968,132.249 131.015 M255.300 131.476 C 255.685 131.576,256.315 131.576,256.700 131.476 C 257.085 131.375,256.770 131.293,256.000 131.293 C 255.230 131.293,254.915 131.375,255.300 131.476 M251.192 134.459 L 248.600 136.868 251.200 134.740 C 252.630 133.570,253.875 132.565,253.967 132.506 C 254.058 132.448,254.055 132.321,253.959 132.225 C 253.863 132.130,252.618 133.135,251.192 134.459 M182.834 139.800 C 182.822 140.240,182.987 140.870,183.200 141.200 C 183.714 141.995,183.714 140.996,183.200 139.800 L 182.856 139.000 182.834 139.800 M244.014 141.050 C 243.328 141.627,242.849 142.183,242.951 142.284 C 243.052 142.386,243.717 141.913,244.427 141.234 C 246.004 139.728,245.730 139.606,244.014 141.050 M132.038 145.000 C 132.024 146.320,132.156 147.627,132.332 147.904 C 132.508 148.180,132.582 147.280,132.497 145.904 C 132.287 142.510,132.069 142.080,132.038 145.000 M238.985 145.700 L 237.000 147.800 239.100 145.815 C 241.051 143.971,241.383 143.600,241.085 143.600 C 241.022 143.600,240.077 144.545,238.985 145.700 M227.200 156.296 C 226.352 157.154,226.326 157.242,227.033 156.875 C 227.962 156.394,229.092 155.177,228.549 155.242 C 228.357 155.265,227.750 155.739,227.200 156.296 M220.200 162.691 C 219.320 163.467,218.960 163.902,219.400 163.658 C 220.503 163.045,222.147 161.612,221.957 161.430 C 221.870 161.347,221.080 161.915,220.200 162.691 M376.600 166.600 C 376.600 167.548,376.735 168.240,376.900 168.138 C 377.065 168.036,377.200 167.344,377.200 166.600 C 377.200 165.856,377.065 165.164,376.900 165.062 C 376.735 164.960,376.600 165.652,376.600 166.600 M212.262 166.500 C 212.510 166.902,214.468 166.871,215.125 166.455 C 215.445 166.252,214.954 166.137,213.863 166.161 C 212.881 166.182,212.160 166.335,212.262 166.500 M43.800 175.000 C 44.771 175.332,48.353 175.447,48.163 175.140 C 48.047 174.953,46.928 174.814,45.676 174.832 C 44.424 174.849,43.580 174.925,43.800 175.000 M339.815 175.176 C 339.676 175.401,340.191 175.459,341.091 175.320 C 343.100 175.010,343.261 174.800,341.490 174.800 C 340.697 174.800,339.943 174.969,339.815 175.176 M336.554 186.800 C 336.554 189.550,336.618 190.675,336.696 189.300 C 336.774 187.925,336.774 185.675,336.696 184.300 C 336.618 182.925,336.554 184.050,336.554 186.800 M107.662 194.462 C 106.926 195.119,106.413 195.746,106.521 195.855 C 106.630 195.963,107.295 195.489,108.000 194.800 C 109.664 193.173,109.399 192.909,107.662 194.462 M336.565 203.000 C 336.566 206.960,336.626 208.526,336.698 206.480 C 336.771 204.434,336.771 201.194,336.698 199.280 C 336.624 197.366,336.565 199.040,336.565 203.000 M102.267 199.667 C 101.863 200.107,101.608 200.541,101.698 200.632 C 101.789 200.723,102.286 200.348,102.801 199.798 C 103.317 199.249,103.573 198.815,103.370 198.833 C 103.166 198.852,102.670 199.227,102.267 199.667 M95.376 206.426 C 94.687 207.145,94.480 207.544,94.877 207.392 C 95.450 207.172,97.076 205.200,96.684 205.200 C 96.610 205.200,96.021 205.752,95.376 206.426 M200.600 211.600 C 200.736 211.820,201.546 212.000,202.400 212.000 C 203.254 212.000,204.064 211.820,204.200 211.600 C 204.353 211.353,203.663 211.200,202.400 211.200 C 201.137 211.200,200.447 211.353,200.600 211.600 M77.192 224.208 C 76.225 225.194,75.539 226.000,75.668 226.000 C 76.030 226.000,79.290 222.756,79.109 222.576 C 79.022 222.488,78.159 223.223,77.192 224.208 M229.700 227.097 C 231.185 227.174,233.615 227.174,235.100 227.097 C 236.585 227.020,235.370 226.957,232.400 226.957 C 229.430 226.957,228.215 227.020,229.700 227.097 M63.182 238.300 C 57.142 244.388,52.326 249.286,52.481 249.185 C 53.130 248.758,74.398 227.464,74.286 227.353 C 74.219 227.286,69.222 232.212,63.182 238.300 M220.711 227.493 C 221.651 227.578,223.091 227.577,223.911 227.491 C 224.730 227.405,223.960 227.336,222.200 227.337 C 220.440 227.339,219.770 227.409,220.711 227.493 M210.040 236.433 C 210.062 237.185,210.230 238.250,210.413 238.800 C 210.629 239.446,210.666 239.020,210.519 237.600 C 210.259 235.083,209.981 234.407,210.040 236.433 M268.800 240.556 C 268.800 240.642,269.417 240.785,270.172 240.873 C 270.927 240.961,271.456 240.890,271.348 240.716 C 271.155 240.403,268.800 240.255,268.800 240.556 M178.122 243.029 L 177.000 244.058 178.300 243.154 C 179.015 242.657,179.600 242.193,179.600 242.125 C 179.600 241.809,179.158 242.080,178.122 243.029 M182.310 242.801 C 184.008 243.837,184.564 243.836,183.000 242.800 C 182.340 242.363,181.620 242.005,181.400 242.004 C 181.180 242.004,181.589 242.362,182.310 242.801 M279.800 248.800 C 283.535 252.540,286.681 255.600,286.791 255.600 C 286.901 255.600,283.935 252.540,280.200 248.800 C 276.465 245.060,273.319 242.000,273.209 242.000 C 273.099 242.000,276.065 245.060,279.800 248.800 M262.800 245.800 C 261.828 246.790,261.123 247.600,261.233 247.600 C 261.343 247.600,262.228 246.790,263.200 245.800 C 264.172 244.810,264.877 244.000,264.767 244.000 C 264.657 244.000,263.772 244.810,262.800 245.800 M174.585 246.500 L 172.600 248.600 174.700 246.615 C 175.855 245.523,176.800 244.578,176.800 244.515 C 176.800 244.217,176.429 244.549,174.585 246.500 M189.967 249.345 C 190.500 250.001,192.000 250.993,192.000 250.689 C 192.000 250.613,191.415 250.122,190.700 249.599 C 189.896 249.010,189.616 248.913,189.967 249.345 M256.100 250.276 C 256.485 250.376,257.115 250.376,257.500 250.276 C 257.885 250.175,257.570 250.093,256.800 250.093 C 256.030 250.093,255.715 250.175,256.100 250.276 M193.700 251.076 C 194.085 251.176,194.715 251.176,195.100 251.076 C 195.485 250.975,195.170 250.893,194.400 250.893 C 193.630 250.893,193.315 250.975,193.700 251.076 M164.378 257.500 L 163.000 259.000 164.500 257.622 C 165.896 256.338,166.184 256.000,165.878 256.000 C 165.812 256.000,165.137 256.675,164.378 257.500 M288.600 257.600 C 289.459 258.480,290.252 259.200,290.362 259.200 C 290.472 259.200,289.859 258.480,289.000 257.600 C 288.141 256.720,287.348 256.000,287.238 256.000 C 287.128 256.000,287.741 256.720,288.600 257.600 M285.579 268.712 L 282.200 272.200 285.588 269.000 C 287.452 267.240,289.057 265.755,289.155 265.700 C 289.253 265.645,289.249 265.516,289.146 265.412 C 289.042 265.309,287.437 266.794,285.579 268.712 M281.523 273.100 C 280.818 273.921,280.290 274.800,280.501 274.800 C 280.583 274.800,281.049 274.260,281.537 273.600 C 282.501 272.296,282.492 271.972,281.523 273.100 M223.700 275.494 C 224.745 275.576,226.455 275.576,227.500 275.494 C 228.545 275.412,227.690 275.344,225.600 275.344 C 223.510 275.344,222.655 275.412,223.700 275.494 M231.600 275.994 C 231.930 276.211,232.635 276.391,233.167 276.394 C 234.451 276.402,234.125 276.175,232.400 275.858 C 231.415 275.677,231.178 275.718,231.600 275.994 M216.645 276.328 C 216.533 276.508,216.973 276.577,217.621 276.482 C 218.270 276.387,218.800 276.240,218.800 276.155 C 218.800 275.850,216.843 276.007,216.645 276.328 M170.200 278.000 C 170.200 278.838,170.335 279.440,170.500 279.338 C 170.665 279.236,170.800 278.634,170.800 278.000 C 170.800 277.366,170.665 276.764,170.500 276.662 C 170.335 276.560,170.200 277.162,170.200 278.000 M238.899 278.578 C 239.503 278.893,240.223 279.268,240.499 279.410 C 240.774 279.553,240.550 279.298,240.000 278.844 C 239.450 278.389,238.730 278.015,238.400 278.011 C 238.070 278.008,238.294 278.263,238.899 278.578 M246.783 284.100 C 248.441 285.866,248.800 286.184,248.800 285.883 C 248.800 285.819,247.945 284.964,246.900 283.983 L 245.000 282.200 246.783 284.100 M292.300 289.882 C 292.795 289.978,293.605 289.978,294.100 289.882 C 294.595 289.787,294.190 289.709,293.200 289.709 C 292.210 289.709,291.805 289.787,292.300 289.882 M296.400 290.248 C 298.716 290.545,302.312 290.577,302.139 290.300 C 302.037 290.135,300.478 290.027,298.676 290.060 C 296.874 290.093,295.850 290.178,296.400 290.248 M149.400 291.165 C 148.740 291.313,150.810 291.372,154.000 291.295 C 161.481 291.114,162.474 290.893,155.800 290.894 C 152.940 290.894,150.060 291.016,149.400 291.165 M145.770 303.200 C 145.770 307.930,145.828 309.865,145.898 307.500 C 145.969 305.135,145.969 301.265,145.898 298.900 C 145.828 296.535,145.770 298.470,145.770 303.200 M254.706 297.418 C 254.810 297.965,255.028 298.494,255.190 298.594 C 255.352 298.694,255.399 298.329,255.294 297.782 C 255.190 297.235,254.972 296.706,254.810 296.606 C 254.648 296.506,254.601 296.871,254.706 297.418 M195.293 300.800 C 195.293 301.570,195.375 301.885,195.476 301.500 C 195.576 301.115,195.576 300.485,195.476 300.100 C 195.375 299.715,195.293 300.030,195.293 300.800 M255.656 300.800 C 255.656 301.130,255.811 301.760,256.000 302.200 C 256.217 302.704,256.344 302.778,256.344 302.400 C 256.344 302.070,256.189 301.440,256.000 301.000 C 255.783 300.496,255.656 300.422,255.656 300.800 M305.999 310.881 C 305.890 316.095,305.938 320.223,306.108 320.053 C 306.277 319.883,306.367 315.617,306.307 310.572 L 306.199 301.400 305.999 310.881 M68.992 308.500 L 65.400 312.200 69.100 308.608 C 71.135 306.633,72.800 304.968,72.800 304.908 C 72.800 304.618,72.328 305.064,68.992 308.500 M146.046 316.476 C 146.021 317.728,146.135 318.836,146.300 318.938 C 146.465 319.040,146.546 318.286,146.480 317.262 C 146.293 314.341,146.097 313.986,146.046 316.476 M302.200 322.800 L 301.000 323.105 302.076 323.153 C 302.668 323.179,303.264 323.020,303.400 322.800 C 303.536 322.580,303.592 322.421,303.524 322.447 C 303.456 322.473,302.860 322.632,302.200 322.800 M163.183 324.900 C 164.841 326.666,165.200 326.984,165.200 326.683 C 165.200 326.619,164.345 325.764,163.300 324.783 L 161.400 323.000 163.183 324.900 M291.400 323.600 L 289.400 323.874 291.200 323.909 C 292.190 323.928,293.360 323.789,293.800 323.600 C 294.713 323.208,294.262 323.208,291.400 323.600 M203.400 328.800 C 204.259 329.680,205.052 330.400,205.162 330.400 C 205.272 330.400,204.659 329.680,203.800 328.800 C 202.941 327.920,202.148 327.200,202.038 327.200 C 201.928 327.200,202.541 327.920,203.400 328.800 M247.178 329.100 L 245.800 330.600 247.300 329.222 C 248.696 327.938,248.984 327.600,248.678 327.600 C 248.612 327.600,247.937 328.275,247.178 329.100 M208.600 333.007 C 209.040 333.366,209.760 333.835,210.200 334.051 L 211.000 334.444 210.200 333.793 C 209.760 333.434,209.040 332.965,208.600 332.749 L 207.800 332.356 208.600 333.007 M237.400 335.485 C 236.175 335.780,235.798 336.328,236.976 336.103 C 237.546 335.994,238.110 335.746,238.230 335.552 C 238.349 335.359,238.392 335.221,238.324 335.246 C 238.256 335.272,237.840 335.379,237.400 335.485 M170.190 337.782 C 170.196 338.738,170.335 339.438,170.500 339.336 C 170.888 339.099,170.877 337.141,170.484 336.522 C 170.317 336.259,170.185 336.826,170.190 337.782 M220.138 337.694 C 220.392 337.856,222.850 337.988,225.600 337.988 C 228.350 337.988,230.808 337.856,231.062 337.694 C 231.316 337.532,228.858 337.400,225.600 337.400 C 222.342 337.400,219.884 337.532,220.138 337.694 M160.400 355.046 C 160.400 355.254,161.525 356.499,162.900 357.813 L 165.400 360.200 163.000 357.610 C 161.680 356.185,160.555 354.940,160.500 354.843 C 160.445 354.746,160.400 354.837,160.400 355.046 M279.596 366.300 L 272.200 373.800 279.700 366.404 C 283.825 362.336,287.200 358.961,287.200 358.904 C 287.200 358.619,286.468 359.332,279.596 366.300 M195.906 364.391 C 196.845 364.594,197.835 364.886,198.106 365.039 C 198.477 365.248,198.488 365.195,198.148 364.827 C 197.900 364.557,196.910 364.266,195.948 364.179 L 194.200 364.022 195.906 364.391 M256.600 364.400 C 257.040 364.589,257.670 364.744,258.000 364.744 C 258.378 364.744,258.304 364.617,257.800 364.400 C 257.360 364.211,256.730 364.056,256.400 364.056 C 256.022 364.056,256.096 364.183,256.600 364.400 M329.673 366.050 C 328.723 366.946,328.014 367.748,328.098 367.831 C 328.182 367.915,329.041 367.177,330.008 366.192 C 332.201 363.957,331.987 363.866,329.673 366.050 M186.585 370.100 L 184.600 372.200 186.700 370.215 C 187.855 369.123,188.800 368.178,188.800 368.115 C 188.800 367.817,188.429 368.149,186.585 370.100 M268.752 374.112 C 268.945 374.305,269.619 374.398,270.251 374.319 C 271.309 374.187,271.281 374.159,269.900 373.968 C 269.040 373.849,268.550 373.910,268.752 374.112 M277.400 376.612 C 276.740 377.153,276.394 377.597,276.630 377.598 C 276.867 377.599,277.483 377.150,278.000 376.600 C 279.185 375.338,278.948 375.343,277.400 376.612 M210.253 377.636 C 210.114 378.331,210.029 380.453,210.065 382.350 L 210.130 385.800 210.401 381.200 C 210.688 376.312,210.659 375.606,210.253 377.636 M241.293 378.400 C 241.293 379.170,241.375 379.485,241.476 379.100 C 241.576 378.715,241.576 378.085,241.476 377.700 C 241.375 377.315,241.293 377.630,241.293 378.400 M272.083 380.457 C 271.359 380.920,270.863 381.396,270.981 381.514 C 271.099 381.632,271.525 381.430,271.929 381.064 C 272.333 380.699,272.874 380.400,273.131 380.400 C 273.389 380.400,273.600 380.220,273.600 380.000 C 273.600 379.479,273.618 379.474,272.083 380.457 M240.928 382.400 C 240.928 383.830,241.001 384.415,241.089 383.700 C 241.178 382.985,241.178 381.815,241.089 381.100 C 241.001 380.385,240.928 380.970,240.928 382.400 M210.103 386.400 C 210.282 387.057,238.212 387.547,238.855 386.905 C 239.023 386.737,232.748 386.650,224.910 386.710 C 213.715 386.797,210.582 386.711,210.299 386.310 C 210.026 385.924,209.979 385.946,210.103 386.400 M190.800 387.431 C 190.800 387.701,192.878 388.456,193.076 388.257 C 193.167 388.167,192.692 387.901,192.020 387.667 C 191.349 387.433,190.800 387.327,190.800 387.431 M214.800 393.600 C 214.800 393.820,215.160 394.000,215.600 394.000 C 216.040 394.000,216.400 393.820,216.400 393.600 C 216.400 393.380,216.040 393.200,215.600 393.200 C 215.160 393.200,214.800 393.380,214.800 393.600 " stroke="none" fill="#595959" fill-rule="evenodd"></path><path id="path3" d="M265.646 70.124 C 265.617 70.580,265.415 70.743,265.100 70.565 C 264.703 70.341,264.702 70.392,265.093 70.815 C 265.707 71.476,266.134 71.106,265.882 70.131 C 265.702 69.434,265.691 69.434,265.646 70.124 M179.200 82.808 C 179.200 83.050,179.647 83.108,180.300 82.951 C 181.870 82.575,181.923 82.400,180.467 82.400 C 179.770 82.400,179.200 82.583,179.200 82.808 M200.000 82.800 C 200.776 83.301,201.200 83.301,201.200 82.800 C 201.200 82.580,200.795 82.403,200.300 82.406 C 199.572 82.411,199.515 82.486,200.000 82.800 M203.600 83.600 C 203.067 83.945,203.067 83.988,203.600 83.988 C 203.930 83.988,204.470 83.813,204.800 83.600 C 205.333 83.255,205.333 83.212,204.800 83.212 C 204.470 83.212,203.930 83.387,203.600 83.600 M173.400 84.309 C 171.981 84.608,171.847 85.154,173.246 84.936 C 173.991 84.820,174.657 84.670,174.727 84.602 C 175.001 84.337,174.156 84.150,173.400 84.309 M209.400 84.800 C 210.501 85.273,210.892 85.273,210.600 84.800 C 210.464 84.580,209.958 84.413,209.476 84.428 C 208.631 84.455,208.629 84.469,209.400 84.800 M155.200 94.000 C 154.650 94.430,154.397 94.786,154.638 94.791 C 154.879 94.796,155.402 94.440,155.800 94.000 C 156.712 92.992,156.488 92.992,155.200 94.000 M146.716 101.014 C 146.432 101.352,145.962 101.892,145.671 102.214 C 144.655 103.341,145.724 102.789,146.860 101.600 C 147.491 100.940,147.832 100.400,147.619 100.400 C 147.406 100.400,146.999 100.676,146.716 101.014 M141.119 108.003 C 140.744 108.661,140.564 109.199,140.719 109.197 C 140.873 109.196,141.307 108.656,141.681 107.997 C 142.056 107.339,142.236 106.801,142.081 106.803 C 141.927 106.804,141.493 107.344,141.119 108.003 M135.079 119.500 C 134.670 120.229,134.366 122.176,134.720 121.800 C 135.135 121.360,135.725 119.200,135.431 119.200 C 135.330 119.200,135.171 119.335,135.079 119.500 M250.989 134.974 C 249.518 136.286,249.239 136.690,249.916 136.523 C 250.420 136.400,250.741 136.208,250.630 136.097 C 250.520 135.986,251.097 135.293,251.914 134.557 C 252.732 133.821,253.305 133.214,253.189 133.209 C 253.073 133.204,252.083 133.998,250.989 134.974 M241.266 143.816 C 240.333 144.785,240.123 145.200,240.566 145.200 C 240.915 145.200,241.200 144.926,241.200 144.591 C 241.200 144.257,241.650 143.778,242.200 143.527 C 242.750 143.277,243.200 142.920,243.200 142.736 C 243.200 142.099,242.596 142.436,241.266 143.816 M234.862 149.662 C 234.126 150.319,233.590 150.923,233.670 151.004 C 233.751 151.084,234.425 150.619,235.169 149.969 C 235.913 149.320,236.449 148.716,236.361 148.627 C 236.272 148.539,235.597 149.004,234.862 149.662 M184.006 152.476 C 184.018 153.481,184.787 154.308,184.794 153.324 C 184.797 152.842,184.620 152.336,184.400 152.200 C 184.180 152.064,184.003 152.188,184.006 152.476 M227.125 156.818 C 226.155 157.384,223.995 159.600,224.414 159.600 C 224.608 159.600,225.523 158.880,226.448 158.000 C 228.173 156.359,228.304 156.130,227.125 156.818 M219.715 163.338 C 218.093 164.427,218.001 164.991,219.594 164.081 C 220.464 163.585,221.777 162.140,221.087 162.438 C 221.039 162.459,220.422 162.864,219.715 163.338 M372.600 172.685 C 371.375 172.980,370.998 173.528,372.176 173.303 C 372.746 173.194,373.310 172.946,373.430 172.752 C 373.549 172.559,373.592 172.421,373.524 172.446 C 373.456 172.472,373.040 172.579,372.600 172.685 M44.905 175.487 C 45.514 175.579,46.414 175.577,46.905 175.482 C 47.397 175.387,46.900 175.311,45.800 175.314 C 44.700 175.317,44.297 175.395,44.905 175.487 M336.501 180.600 C 336.505 181.480,336.587 181.793,336.683 181.295 C 336.779 180.798,336.775 180.078,336.675 179.695 C 336.575 179.313,336.496 179.720,336.501 180.600 M336.524 193.800 C 336.526 195.120,336.601 195.612,336.690 194.893 C 336.779 194.174,336.777 193.094,336.686 192.493 C 336.595 191.892,336.522 192.480,336.524 193.800 M96.820 205.271 C 96.374 205.750,96.095 206.229,96.202 206.335 C 96.374 206.507,98.000 204.883,98.000 204.539 C 98.000 204.199,97.570 204.466,96.820 205.271 M94.229 207.829 C 93.041 209.016,93.478 209.147,94.800 208.000 C 95.307 207.560,95.528 207.200,95.290 207.200 C 95.052 207.200,94.574 207.483,94.229 207.829 M91.437 210.643 C 90.620 211.436,90.034 212.167,90.134 212.268 C 90.235 212.368,91.063 211.719,91.974 210.825 C 92.886 209.931,93.473 209.200,93.278 209.200 C 93.082 209.200,92.254 209.849,91.437 210.643 M336.596 281.200 C 336.596 320.470,336.643 336.535,336.700 316.900 C 336.757 297.265,336.757 265.135,336.700 245.500 C 336.643 225.865,336.596 241.930,336.596 281.200 M88.667 213.297 C 87.669 214.345,88.125 214.675,89.152 213.648 C 89.602 213.198,89.842 212.761,89.685 212.678 C 89.528 212.595,89.070 212.873,88.667 213.297 M219.800 227.588 C 215.880 227.765,218.021 227.834,226.933 227.820 L 239.665 227.800 240.441 228.754 C 241.137 229.611,241.211 230.321,241.165 235.691 C 241.127 240.035,241.250 241.800,241.615 242.136 C 242.002 242.493,242.048 242.478,241.816 242.068 C 241.650 241.776,241.537 238.866,241.565 235.601 C 241.615 229.853,241.586 229.628,240.644 228.532 L 239.671 227.400 232.535 227.368 C 228.611 227.350,222.880 227.449,219.800 227.588 M212.141 228.397 C 211.668 228.588,211.170 228.924,211.034 229.145 C 210.831 229.473,212.995 228.614,213.567 228.138 C 213.867 227.889,213.019 228.043,212.141 228.397 M210.124 233.000 C 210.126 234.320,210.201 234.812,210.290 234.093 C 210.379 233.374,210.377 232.294,210.286 231.693 C 210.195 231.092,210.122 231.680,210.124 233.000 M210.901 240.200 C 210.905 241.080,210.987 241.393,211.083 240.895 C 211.179 240.398,211.175 239.678,211.075 239.295 C 210.975 238.913,210.896 239.320,210.901 240.200 M264.026 245.100 L 259.782 249.400 263.798 245.500 C 266.006 243.355,268.036 241.600,268.307 241.600 C 268.578 241.600,268.800 241.420,268.800 241.200 C 268.800 240.386,268.176 240.895,264.026 245.100 M271.600 241.481 C 272.150 241.875,273.500 243.002,274.600 243.984 L 276.600 245.771 274.903 243.974 C 273.970 242.985,272.620 241.859,271.903 241.471 C 270.644 240.789,270.634 240.790,271.600 241.481 M179.463 242.300 C 179.362 242.465,179.897 242.614,180.651 242.630 C 181.496 242.649,181.826 242.536,181.511 242.337 C 180.865 241.927,179.705 241.906,179.463 242.300 M210.189 242.870 C 210.033 243.381,209.612 244.157,209.253 244.593 C 208.633 245.346,208.638 245.357,209.342 244.810 C 210.097 244.222,210.965 242.431,210.648 242.114 C 210.552 242.018,210.345 242.358,210.189 242.870 M242.888 243.813 C 243.486 244.443,244.047 244.877,244.135 244.779 C 244.223 244.680,243.733 244.165,243.047 243.634 L 241.800 242.669 242.888 243.813 M186.041 245.900 C 186.063 246.065,187.008 247.003,188.141 247.985 L 190.200 249.771 188.215 247.685 C 186.186 245.554,185.970 245.376,186.041 245.900 M207.000 246.650 C 206.281 247.262,206.134 247.505,206.633 247.257 C 207.366 246.893,208.741 245.576,208.349 245.614 C 208.267 245.622,207.660 246.088,207.000 246.650 M171.613 250.100 C 169.545 252.355,168.531 253.570,169.362 252.800 C 170.976 251.303,175.785 246.000,175.528 246.000 C 175.444 246.000,173.682 247.845,171.613 250.100 M196.200 250.860 C 195.320 251.069,193.970 251.144,193.200 251.027 C 191.942 250.835,191.901 250.855,192.799 251.230 C 193.888 251.685,197.459 251.352,197.823 250.763 C 197.946 250.563,197.992 250.418,197.924 250.440 C 197.856 250.462,197.080 250.651,196.200 250.860 M164.648 257.438 C 163.794 258.407,163.254 259.183,163.448 259.162 C 163.642 259.142,164.498 258.332,165.352 257.362 C 166.206 256.393,166.746 255.617,166.552 255.638 C 166.358 255.658,165.502 256.468,164.648 257.438 M289.234 258.647 C 289.765 259.333,290.280 259.823,290.379 259.735 C 290.477 259.647,290.043 259.086,289.413 258.488 L 288.269 257.400 289.234 258.647 M161.381 261.300 L 159.800 263.000 161.500 261.419 C 163.081 259.948,163.384 259.600,163.081 259.600 C 163.016 259.600,162.251 260.365,161.381 261.300 M290.600 262.000 C 290.600 262.838,290.735 263.440,290.900 263.338 C 291.065 263.236,291.200 262.634,291.200 262.000 C 291.200 261.366,291.065 260.764,290.900 260.662 C 290.735 260.560,290.600 261.162,290.600 262.000 M286.139 267.700 C 284.035 269.735,281.946 271.940,281.496 272.600 C 281.047 273.260,281.884 272.503,283.357 270.917 C 284.829 269.331,287.053 267.126,288.297 266.017 C 289.541 264.908,290.426 264.000,290.262 264.000 C 290.098 264.000,288.243 265.665,286.139 267.700 M163.122 267.900 C 163.777 268.725,164.729 269.760,165.240 270.200 C 165.750 270.640,165.298 269.965,164.235 268.700 C 162.089 266.146,161.256 265.547,163.122 267.900 M280.267 274.267 C 279.900 274.633,279.929 277.909,280.300 278.138 C 280.465 278.240,280.600 277.351,280.600 276.162 C 280.600 274.973,280.585 274.000,280.567 274.000 C 280.548 274.000,280.413 274.120,280.267 274.267 M169.663 275.600 C 170.151 276.260,170.617 276.800,170.698 276.800 C 170.779 276.800,170.526 276.260,170.136 275.600 C 169.746 274.940,169.281 274.400,169.102 274.400 C 168.923 274.400,169.175 274.940,169.663 275.600 M224.100 275.091 C 224.925 275.178,226.275 275.178,227.100 275.091 C 227.925 275.005,227.250 274.934,225.600 274.934 C 223.950 274.934,223.275 275.005,224.100 275.091 M218.821 275.579 C 218.446 275.816,218.870 275.865,220.021 275.718 C 220.999 275.592,221.875 275.425,221.967 275.345 C 222.342 275.019,219.355 275.240,218.821 275.579 M229.233 275.345 C 229.325 275.425,230.201 275.592,231.179 275.718 C 232.330 275.865,232.754 275.816,232.379 275.579 C 231.845 275.240,228.858 275.019,229.233 275.345 M243.585 281.171 C 244.347 281.847,245.142 282.400,245.352 282.400 C 245.562 282.400,245.658 282.348,245.567 282.284 C 245.475 282.220,244.680 281.667,243.800 281.055 L 242.200 279.942 243.585 281.171 M204.524 283.300 C 203.090 284.675,201.548 286.340,201.097 287.000 C 200.646 287.660,201.212 287.172,202.356 285.916 C 203.500 284.660,205.180 282.995,206.090 282.216 C 207.000 281.437,207.606 280.800,207.437 280.800 C 207.269 280.800,205.958 281.925,204.524 283.300 M167.853 284.900 L 167.133 286.200 167.958 285.200 C 168.689 284.313,169.014 283.600,168.686 283.600 C 168.624 283.600,168.249 284.185,167.853 284.900 M248.800 285.848 C 248.800 286.058,249.353 286.853,250.029 287.615 L 251.258 289.000 250.145 287.400 C 249.533 286.520,248.980 285.725,248.916 285.633 C 248.852 285.542,248.800 285.638,248.800 285.848 M284.800 286.264 C 284.800 286.482,285.295 287.097,285.900 287.630 L 287.000 288.600 286.000 287.400 C 285.450 286.740,284.955 286.125,284.900 286.033 C 284.845 285.942,284.800 286.045,284.800 286.264 M164.955 288.681 C 164.107 289.716,163.622 290.434,163.877 290.276 C 164.421 289.940,166.955 286.800,166.682 286.800 C 166.580 286.800,165.803 287.647,164.955 288.681 M289.018 289.574 C 289.248 289.807,290.868 290.079,292.618 290.180 L 295.800 290.363 292.800 289.984 C 291.150 289.776,289.530 289.503,289.200 289.379 C 288.781 289.221,288.726 289.280,289.018 289.574 M161.600 290.800 L 160.600 291.120 161.700 291.160 C 162.305 291.182,162.800 291.020,162.800 290.800 C 162.800 290.580,162.755 290.418,162.700 290.440 C 162.645 290.462,162.150 290.624,161.600 290.800 M152.515 291.496 C 153.788 291.576,155.768 291.575,156.915 291.494 C 158.062 291.414,157.020 291.349,154.600 291.350 C 152.180 291.351,151.242 291.416,152.515 291.496 M146.749 292.300 C 146.271 292.909,146.278 292.940,146.800 292.535 C 147.130 292.280,147.940 291.992,148.600 291.895 L 149.800 291.720 148.549 291.660 C 147.777 291.623,147.088 291.868,146.749 292.300 M146.175 304.000 C 146.175 309.830,146.231 312.215,146.299 309.300 C 146.367 306.385,146.367 301.615,146.299 298.700 C 146.231 295.785,146.175 298.170,146.175 304.000 M305.097 296.000 C 305.253 296.770,305.385 302.842,305.390 309.492 C 305.396 317.073,305.530 321.102,305.747 320.292 C 306.247 318.433,305.813 296.300,305.258 295.356 C 304.899 294.746,304.868 294.870,305.097 296.000 M195.646 297.667 C 195.621 298.034,195.496 298.664,195.370 299.067 C 195.152 299.762,195.163 299.763,195.597 299.087 C 195.848 298.696,195.973 298.066,195.873 297.687 C 195.711 297.068,195.688 297.066,195.646 297.667 M255.552 299.287 C 255.737 300.398,255.793 300.455,255.919 299.654 C 256.001 299.133,255.903 298.543,255.701 298.341 C 255.479 298.119,255.421 298.493,255.552 299.287 M194.652 302.100 C 194.310 303.378,194.353 311.308,194.706 311.861 C 194.868 312.114,195.000 309.819,195.000 306.761 C 195.000 300.723,195.005 300.785,194.652 302.100 M256.555 307.000 C 256.556 309.860,256.620 310.978,256.697 309.483 C 256.774 307.989,256.774 305.649,256.696 304.283 C 256.618 302.918,256.555 304.140,256.555 307.000 M255.983 312.700 C 255.973 312.865,255.815 313.779,255.630 314.732 C 255.446 315.685,255.431 316.315,255.597 316.132 C 255.956 315.736,256.499 312.400,256.205 312.400 C 256.092 312.400,255.992 312.535,255.983 312.700 M195.489 315.200 C 195.747 316.680,196.690 319.200,196.986 319.200 C 197.083 319.200,196.875 318.345,196.526 317.300 C 195.492 314.213,195.221 313.664,195.489 315.200 M146.618 318.900 C 146.768 319.395,147.055 319.976,147.256 320.191 C 147.457 320.406,147.419 320.001,147.172 319.291 C 146.665 317.838,146.197 317.508,146.618 318.900 M154.100 323.097 C 155.585 323.174,158.015 323.174,159.500 323.097 C 160.985 323.020,159.770 322.957,156.800 322.957 C 153.830 322.957,152.615 323.020,154.100 323.097 M292.657 323.148 C 292.248 323.309,293.688 323.378,295.857 323.301 C 301.406 323.105,302.113 322.914,297.400 322.883 C 295.200 322.868,293.066 322.988,292.657 323.148 M250.823 325.100 C 250.091 326.145,249.831 326.697,250.246 326.327 C 250.971 325.680,252.599 323.200,252.300 323.200 C 252.220 323.200,251.555 324.055,250.823 325.100 M199.250 323.800 C 199.570 324.652,201.416 327.190,201.720 327.195 C 201.897 327.198,201.546 326.525,200.942 325.700 C 199.610 323.880,199.040 323.241,199.250 323.800 M286.575 325.700 L 285.400 327.000 286.700 325.825 C 287.415 325.179,288.000 324.594,288.000 324.525 C 288.000 324.216,287.670 324.488,286.575 325.700 M165.560 327.400 C 166.234 328.705,166.788 329.428,166.785 329.000 C 166.783 328.780,166.414 328.150,165.964 327.600 C 165.421 326.936,165.285 326.869,165.560 327.400 M247.347 329.099 C 246.438 330.035,245.816 330.800,245.966 330.800 C 246.326 330.800,249.398 327.646,249.174 327.506 C 249.078 327.447,248.256 328.164,247.347 329.099 M243.800 332.250 C 243.081 332.862,242.934 333.105,243.433 332.857 C 244.166 332.493,245.541 331.176,245.149 331.214 C 245.067 331.222,244.460 331.688,243.800 332.250 M282.187 333.400 C 282.084 333.730,281.912 334.279,281.805 334.621 C 281.697 334.962,281.766 335.145,281.957 335.027 C 282.148 334.909,282.391 334.359,282.497 333.806 C 282.706 332.713,282.490 332.430,282.187 333.400 M169.681 334.991 C 170.159 335.976,170.619 336.714,170.703 336.630 C 170.884 336.449,169.268 333.200,168.997 333.200 C 168.894 333.200,169.202 334.006,169.681 334.991 M239.800 334.627 C 239.140 334.970,238.420 335.435,238.200 335.661 C 237.980 335.887,238.565 335.677,239.500 335.195 C 240.435 334.713,241.200 334.247,241.200 334.160 C 241.200 333.920,241.100 333.953,239.800 334.627 M235.000 336.612 C 234.120 336.929,233.040 337.193,232.600 337.200 C 232.160 337.207,231.530 337.395,231.200 337.618 C 230.756 337.919,230.912 337.964,231.800 337.792 C 233.811 337.404,236.178 336.680,236.580 336.330 C 237.081 335.895,236.899 335.927,235.000 336.612 M217.633 337.343 C 217.725 337.421,218.430 337.601,219.200 337.742 C 220.185 337.923,220.422 337.882,220.000 337.606 C 219.458 337.250,217.237 337.003,217.633 337.343 M164.469 346.410 C 160.488 350.555,159.571 351.724,159.714 352.472 C 159.886 353.373,159.893 353.370,159.946 352.392 C 159.984 351.684,161.197 350.198,164.028 347.392 C 167.389 344.061,170.052 341.081,169.527 341.238 C 169.457 341.259,167.181 343.587,164.469 346.410 M282.354 342.336 C 282.799 342.960,283.479 343.725,283.865 344.036 C 284.252 344.346,283.960 343.835,283.217 342.900 C 281.691 340.980,281.125 340.610,282.354 342.336 M290.752 353.913 C 290.621 354.707,290.679 355.081,290.901 354.859 C 291.103 354.657,291.201 354.067,291.119 353.546 C 290.993 352.745,290.937 352.802,290.752 353.913 M160.702 355.000 C 161.159 355.660,162.308 356.920,163.255 357.800 C 164.715 359.157,164.649 359.035,162.819 357.000 C 159.926 353.783,159.733 353.601,160.702 355.000 M193.856 363.910 C 193.751 364.080,194.442 364.215,195.392 364.210 C 196.343 364.204,197.038 364.065,196.936 363.900 C 196.694 363.504,194.102 363.512,193.856 363.910 M255.400 363.974 C 254.824 364.203,255.069 364.281,256.274 364.254 C 257.194 364.232,257.734 364.079,257.474 363.914 C 256.896 363.546,256.443 363.560,255.400 363.974 M191.000 365.844 L 189.400 367.276 191.200 365.961 C 192.190 365.237,193.075 364.590,193.167 364.523 C 193.258 364.455,193.168 364.403,192.967 364.406 C 192.765 364.409,191.880 365.056,191.000 365.844 M258.446 364.500 C 258.545 364.555,260.690 366.580,263.213 369.000 L 267.800 373.400 263.407 368.900 C 260.991 366.425,258.846 364.400,258.640 364.400 C 258.435 364.400,258.348 364.445,258.446 364.500 M329.400 366.800 C 328.768 367.460,328.366 368.000,328.507 368.000 C 328.797 368.000,330.800 366.062,330.800 365.782 C 330.800 365.423,330.533 365.618,329.400 366.800 M186.349 369.867 C 186.047 370.233,185.098 371.043,184.240 371.667 C 183.382 372.290,182.870 372.800,183.101 372.800 C 183.553 372.800,187.570 369.243,187.149 369.216 C 187.011 369.207,186.651 369.500,186.349 369.867 M243.004 370.396 C 242.374 371.054,241.935 371.656,242.029 371.734 C 242.123 371.812,242.713 371.274,243.339 370.538 C 244.754 368.877,244.545 368.788,243.004 370.396 M176.000 370.947 C 176.770 371.782,177.760 372.655,178.200 372.887 C 178.640 373.119,178.910 373.225,178.800 373.122 C 176.242 370.743,174.728 369.567,176.000 370.947 M324.812 369.984 C 324.488 370.189,324.321 370.454,324.441 370.574 C 324.560 370.694,325.005 370.529,325.429 370.209 C 326.273 369.571,325.760 369.385,324.812 369.984 M241.418 372.900 C 241.190 373.623,240.791 380.277,241.004 379.800 C 241.230 379.294,241.885 372.400,241.707 372.400 C 241.634 372.400,241.504 372.625,241.418 372.900 M72.200 373.200 C 72.537 373.745,168.400 373.741,168.400 373.196 C 168.400 372.948,151.051 372.807,120.176 372.803 C 87.935 372.800,72.034 372.931,72.200 373.200 M210.924 375.000 C 210.926 376.320,211.001 376.812,211.090 376.093 C 211.179 375.374,211.177 374.294,211.086 373.693 C 210.995 373.092,210.922 373.680,210.924 375.000 M281.600 373.156 C 281.600 373.672,311.478 373.721,311.796 373.207 C 311.964 372.934,307.034 372.800,296.824 372.800 C 288.187 372.800,281.600 372.954,281.600 373.156 M312.800 373.200 C 312.800 373.420,313.385 373.597,314.100 373.594 C 315.086 373.589,315.255 373.494,314.800 373.200 C 314.014 372.692,312.800 372.692,312.800 373.200 M180.100 373.476 C 180.485 373.576,181.115 373.576,181.500 373.476 C 181.885 373.375,181.570 373.293,180.800 373.293 C 180.030 373.293,179.715 373.375,180.100 373.476 M210.520 380.000 C 210.520 381.210,210.595 381.705,210.687 381.100 C 210.778 380.495,210.778 379.505,210.687 378.900 C 210.595 378.295,210.520 378.790,210.520 380.000 M251.000 390.615 C 249.412 391.165,249.410 391.167,250.800 390.942 C 251.570 390.818,252.371 390.555,252.580 390.358 C 253.047 389.918,252.987 389.928,251.000 390.615 M213.000 393.600 C 212.330 393.888,212.411 393.948,213.500 393.972 C 214.215 393.987,214.800 393.820,214.800 393.600 C 214.800 393.125,214.105 393.125,213.000 393.600 M234.800 393.600 C 234.800 393.820,235.160 394.000,235.600 394.000 C 236.040 394.000,236.400 393.820,236.400 393.600 C 236.400 393.380,236.040 393.200,235.600 393.200 C 235.160 393.200,234.800 393.380,234.800 393.600 " stroke="none" fill="#848484" fill-rule="evenodd"></path></g></svg>